<?xml version="1.0" encoding="utf-8"?>
<svg version="1.1" id="Layer_1"
xmlns="http://www.w3.org/2000/svg"
xmlns:xlink="http://www.w3.org/1999/xlink"
width="39px" height="46px"
xml:space="preserve">
<g id="PathID_239" transform="matrix(1, 0, 0, 1, 19.05, 22.9)">
<path style="fill:#000000;fill-opacity:1" d="M-12.7 -22.85L18.7 -14.15L19 -13.95L19.05 -13.6L18.9 -13.3L-18.2 22.8L-18.45 22.95L-18.75 22.9L-19 22.7L-19.05 22.4L-13.4 -22.45L-13.2 -22.7L-13 -22.85L-12.7 -22.85M-12.4 -21.75L-17.85 21.1L17.55 -13.4L-12.4 -21.75" />
<path style="fill:#770000;fill-opacity:1" d="M-10.7 -19.15L-15.15 15.65L13.6 -12.4L-10.7 -19.15M17.55 -13.4L-17.85 21.1L-12.4 -21.75L17.55 -13.4" />
<path style="fill:#372519;fill-opacity:1" d="M13.6 -12.4L-15.15 15.65L-10.7 -19.15L13.6 -12.4" />
</g>
</svg>
