<?xml version="1.0" encoding="utf-8"?>
<svg version="1.1" id="Layer_1"
xmlns="http://www.w3.org/2000/svg"
xmlns:xlink="http://www.w3.org/1999/xlink"
width="69px" height="46px"
xml:space="preserve">
<g id="PathID_261" transform="matrix(1, 0, 0, 1, 35, 22.25)">
<path style="fill:#FFFFFF;fill-opacity:1" d="M4.65 -4.55L4.1 -4.5L3.55 -4.05Q3.4 -3.75 3.4 -3.3L3.4 1.4Q3.4 1.9 3.55 2.1L4.1 2.15L4.6 1.7L4.7 0.8L4.7 -3.9L4.65 -4.55M2.2 -5.9L4.1 -6.95Q6.3 -7.95 7.25 -7.6Q8.2 -7.25 8.2 -5.55L8.2 -0.5L8 1L7.3 2.35L6.05 3.55L4.1 4.6Q2.6 5.3 1.65 5.3Q0.7 5.35 0.25 4.7Q-0.2 4.1 -0.2 2.9L-0.2 -1.7L0.05 -3.25L0.85 -4.65L2.2 -5.9M18.6 -10.2L18.6 -5.15L18.4 -3.65L17.7 -2.3L16.45 -1.1L14.5 -0.05L12.05 0.65Q11.1 0.7 10.65 0.05Q10.2 -0.55 10.2 -1.75L10.2 -6.35Q10.2 -7.2 10.45 -7.9L11.25 -9.3L12.6 -10.55L14.5 -11.6Q16.7 -12.6 17.65 -12.25Q18.6 -11.9 18.6 -10.2M13.8 -7.95L13.8 -3.25Q13.8 -2.75 13.95 -2.55L14.5 -2.5L15 -2.95L15.1 -3.85L15.1 -8.55L15.05 -9.2L14.5 -9.15L13.95 -8.7Q13.8 -8.4 13.8 -7.95M24.5 -15.95L26.45 -11.8L26.45 -13.75L26.4 -14.45L26.15 -14.7L26.15 -16.65L29.7 -18.25L29.7 -16.3L29.45 -15.9L29.35 -15.6L29.3 -15.3L29.3 -6.95L25.95 -5.4L23.8 -9.45L23.8 -7.75L23.85 -7.05Q23.9 -6.8 24.2 -6.8L24.2 -4.65L20.7 -3.05L20.7 -5.1L21.05 -5.6L21.15 -6.15L21.15 -11.25L21.05 -12.1Q21 -12.3 20.7 -12.25L20.7 -14.2L24.5 -15.95M-6 -0.15L-6.35 0.3L-6.4 0.9L-6.4 6.75L-5.7 6.3L-5.4 5.65L-5.3 4.75L-5.3 3.2L-2.1 1.8L-2.1 7.2L-10.3 10.85L-10.3 8.9Q-9.9 8.6 -9.85 7.95L-9.9 7.65L-9.9 2.6L-9.95 1.9L-10.2 1.7L-10.2 -0.35L-6 -2.2L-6 -0.15M-16.2 8.4L-16.7 5.3L-17.2 8.85L-16.2 8.4M-15.9 11.1L-15.8 10.75L-15.8 10.35L-17.5 11.15L-17.45 11.7L-17.1 11.95L-17.1 13.9L-20.9 15.6L-20.9 13.55L-20.55 12.95L-20.4 12.25L-18.95 3.6L-13.95 1.35L-12.4 8.75Q-12.25 9.5 -11.8 9.55L-11.8 11.5L-16.2 13.5L-16.2 11.55L-15.9 11.1M-25.35 6.5L-24.05 6.3L-22.9 6.35L-22.9 9L-26.2 10.45L-26.15 10Q-26.15 9.05 -26.8 9.35L-27.2 9.65L-27.4 10.1L-27.15 10.7L-26.55 10.9L-25.8 10.8L-25.05 10.6Q-23.7 10.3 -23.05 10.85Q-22.45 11.45 -22.45 12.6L-22.7 14.35Q-22.95 15.2 -23.35 15.8L-24.4 16.95L-25.5 17.7L-27 18.5L-27.9 18.9L-29.1 19.1L-30.2 19.2L-30.9 18.9L-30.9 16.05L-27.4 14.5L-27.4 15.2L-27.3 15.75L-27.05 15.9L-26.6 15.8L-26.15 15.3L-26.1 14.5Q-26.1 14.15 -26.4 14.05L-27.1 13.95L-28.2 14.15L-29.25 14.35L-30.35 14.05L-30.85 13.25L-31 12L-30.8 10.7L-30.15 9.4L-28.9 8.15L-26.9 7.05L-25.35 6.5" />
<path style="fill:none;stroke-width:8;stroke-linecap:round;stroke-linejoin:round;stroke-miterlimit:3;stroke:#000000;stroke-opacity:1" d="M4.7 -3.9L4.7 0.8L4.6 1.7L4.1 2.15L3.55 2.1Q3.4 1.9 3.4 1.4L3.4 -3.3Q3.4 -3.75 3.55 -4.05L4.1 -4.5L4.65 -4.55L4.7 -3.9z" />
<path style="fill:none;stroke-width:8;stroke-linecap:round;stroke-linejoin:round;stroke-miterlimit:3;stroke:#000000;stroke-opacity:1" d="M0.85 -4.65L0.05 -3.25L-0.2 -1.7L-0.2 2.9Q-0.2 4.1 0.25 4.7Q0.7 5.35 1.65 5.3Q2.6 5.3 4.1 4.6L6.05 3.55L7.3 2.35L8 1L8.2 -0.5L8.2 -5.55Q8.2 -7.25 7.25 -7.6Q6.3 -7.95 4.1 -6.95L2.2 -5.9L0.85 -4.65z" />
<path style="fill:none;stroke-width:8;stroke-linecap:round;stroke-linejoin:round;stroke-miterlimit:3;stroke:#000000;stroke-opacity:1" d="M17.65 -12.25Q16.7 -12.6 14.5 -11.6L12.6 -10.55L11.25 -9.3L10.45 -7.9Q10.2 -7.2 10.2 -6.35L10.2 -1.75Q10.2 -0.55 10.65 0.05Q11.1 0.7 12.05 0.65L14.5 -0.05L16.45 -1.1L17.7 -2.3L18.4 -3.65L18.6 -5.15L18.6 -10.2Q18.6 -11.9 17.65 -12.25z" />
<path style="fill:none;stroke-width:8;stroke-linecap:round;stroke-linejoin:round;stroke-miterlimit:3;stroke:#000000;stroke-opacity:1" d="M13.95 -8.7L14.5 -9.15L15.05 -9.2L15.1 -8.55L15.1 -3.85L15 -2.95L14.5 -2.5L13.95 -2.55Q13.8 -2.75 13.8 -3.25L13.8 -7.95Q13.8 -8.4 13.95 -8.7z" />
<path style="fill:none;stroke-width:8;stroke-linecap:round;stroke-linejoin:round;stroke-miterlimit:3;stroke:#000000;stroke-opacity:1" d="M24.5 -15.95L26.45 -11.8L26.45 -13.75L26.4 -14.45L26.15 -14.7L26.15 -16.65L29.7 -18.25L29.7 -16.3L29.45 -15.9L29.35 -15.6L29.3 -15.3L29.3 -6.95L25.95 -5.4L23.8 -9.45L23.8 -7.75L23.85 -7.05Q23.9 -6.8 24.2 -6.8L24.2 -4.65L20.7 -3.05L20.7 -5.1L21.05 -5.6L21.15 -6.15L21.15 -11.25L21.05 -12.1Q21 -12.3 20.7 -12.25L20.7 -14.2L24.5 -15.95z" />
<path style="fill:none;stroke-width:8;stroke-linecap:round;stroke-linejoin:round;stroke-miterlimit:3;stroke:#000000;stroke-opacity:1" d="M-6 -0.15L-6.35 0.3L-6.4 0.9L-6.4 6.75L-5.7 6.3L-5.4 5.65L-5.3 4.75L-5.3 3.2L-2.1 1.8L-2.1 7.2L-10.3 10.85L-10.3 8.9Q-9.9 8.6 -9.85 7.95L-9.9 7.65L-9.9 2.6L-9.95 1.9L-10.2 1.7L-10.2 -0.35L-6 -2.2L-6 -0.15z" />
<path style="fill:none;stroke-width:8;stroke-linecap:round;stroke-linejoin:round;stroke-miterlimit:3;stroke:#000000;stroke-opacity:1" d="M-16.2 8.4L-16.7 5.3L-17.2 8.85L-16.2 8.4z" />
<path style="fill:none;stroke-width:8;stroke-linecap:round;stroke-linejoin:round;stroke-miterlimit:3;stroke:#000000;stroke-opacity:1" d="M-15.9 11.1L-15.8 10.75L-15.8 10.35L-17.5 11.15L-17.45 11.7L-17.1 11.95L-17.1 13.9L-20.9 15.6L-20.9 13.55L-20.55 12.95L-20.4 12.25L-18.95 3.6L-13.95 1.35L-12.4 8.75Q-12.25 9.5 -11.8 9.55L-11.8 11.5L-16.2 13.5L-16.2 11.55L-15.9 11.1z" />
<path style="fill:none;stroke-width:8;stroke-linecap:round;stroke-linejoin:round;stroke-miterlimit:3;stroke:#000000;stroke-opacity:1" d="M-25.35 6.5L-24.05 6.3L-22.9 6.35L-22.9 9L-26.2 10.45L-26.15 10Q-26.15 9.05 -26.8 9.35L-27.2 9.65L-27.4 10.1L-27.15 10.7L-26.55 10.9L-25.8 10.8L-25.05 10.6Q-23.7 10.3 -23.05 10.85Q-22.45 11.45 -22.45 12.6L-22.7 14.35Q-22.95 15.2 -23.35 15.8L-24.4 16.95L-25.5 17.7L-27 18.5L-27.9 18.9L-29.1 19.1L-30.2 19.2L-30.9 18.9L-30.9 16.05L-27.4 14.5L-27.4 15.2L-27.3 15.75L-27.05 15.9L-26.6 15.8L-26.15 15.3L-26.1 14.5Q-26.1 14.15 -26.4 14.05L-27.1 13.95L-28.2 14.15L-29.25 14.35L-30.35 14.05L-30.85 13.25L-31 12L-30.8 10.7L-30.15 9.4L-28.9 8.15L-26.9 7.05L-25.35 6.5z" />
</g>
<g id="PathID_262" transform="matrix(1, 0, 0, 1, 35, 22.25)">
<path style="fill:#FFFFFF;fill-opacity:1" d="M4.65 -4.55L4.1 -4.5L3.55 -4.05Q3.4 -3.75 3.4 -3.3L3.4 1.4Q3.4 1.9 3.55 2.1L4.1 2.15L4.6 1.7L4.7 0.8L4.7 -3.9L4.65 -4.55M2.2 -5.9L4.1 -6.95Q6.3 -7.95 7.25 -7.6Q8.2 -7.25 8.2 -5.55L8.2 -0.5L8 1L7.3 2.35L6.05 3.55L4.1 4.6Q2.6 5.3 1.65 5.3Q0.7 5.35 0.25 4.7Q-0.2 4.1 -0.2 2.9L-0.2 -1.7L0.05 -3.25L0.85 -4.65L2.2 -5.9M18.6 -10.2L18.6 -5.15L18.4 -3.65L17.7 -2.3L16.45 -1.1L14.5 -0.05L12.05 0.65Q11.1 0.7 10.65 0.05Q10.2 -0.55 10.2 -1.75L10.2 -6.35Q10.2 -7.2 10.45 -7.9L11.25 -9.3L12.6 -10.55L14.5 -11.6Q16.7 -12.6 17.65 -12.25Q18.6 -11.9 18.6 -10.2M13.8 -7.95L13.8 -3.25Q13.8 -2.75 13.95 -2.55L14.5 -2.5L15 -2.95L15.1 -3.85L15.1 -8.55L15.05 -9.2L14.5 -9.15L13.95 -8.7Q13.8 -8.4 13.8 -7.95M24.5 -15.95L26.45 -11.8L26.45 -13.75L26.4 -14.45L26.15 -14.7L26.15 -16.65L29.7 -18.25L29.7 -16.3L29.45 -15.9L29.35 -15.6L29.3 -15.3L29.3 -6.95L25.95 -5.4L23.8 -9.45L23.8 -7.75L23.85 -7.05Q23.9 -6.8 24.2 -6.8L24.2 -4.65L20.7 -3.05L20.7 -5.1L21.05 -5.6L21.15 -6.15L21.15 -11.25L21.05 -12.1Q21 -12.3 20.7 -12.25L20.7 -14.2L24.5 -15.95M-6 -0.15L-6.35 0.3L-6.4 0.9L-6.4 6.75L-5.7 6.3L-5.4 5.65L-5.3 4.75L-5.3 3.2L-2.1 1.8L-2.1 7.2L-10.3 10.85L-10.3 8.9Q-9.9 8.6 -9.85 7.95L-9.9 7.65L-9.9 2.6L-9.95 1.9L-10.2 1.7L-10.2 -0.35L-6 -2.2L-6 -0.15M-16.2 8.4L-16.7 5.3L-17.2 8.85L-16.2 8.4M-15.9 11.1L-15.8 10.75L-15.8 10.35L-17.5 11.15L-17.45 11.7L-17.1 11.95L-17.1 13.9L-20.9 15.6L-20.9 13.55L-20.55 12.95L-20.4 12.25L-18.95 3.6L-13.95 1.35L-12.4 8.75Q-12.25 9.5 -11.8 9.55L-11.8 11.5L-16.2 13.5L-16.2 11.55L-15.9 11.1M-25.35 6.5L-24.05 6.3L-22.9 6.35L-22.9 9L-26.2 10.45L-26.15 10Q-26.15 9.05 -26.8 9.35L-27.2 9.65L-27.4 10.1L-27.15 10.7L-26.55 10.9L-25.8 10.8L-25.05 10.6Q-23.7 10.3 -23.05 10.85Q-22.45 11.45 -22.45 12.6L-22.7 14.35Q-22.95 15.2 -23.35 15.8L-24.4 16.95L-25.5 17.7L-27 18.5L-27.9 18.9L-29.1 19.1L-30.2 19.2L-30.9 18.9L-30.9 16.05L-27.4 14.5L-27.4 15.2L-27.3 15.75L-27.05 15.9L-26.6 15.8L-26.15 15.3L-26.1 14.5Q-26.1 14.15 -26.4 14.05L-27.1 13.95L-28.2 14.15L-29.25 14.35L-30.35 14.05L-30.85 13.25L-31 12L-30.8 10.7L-30.15 9.4L-28.9 8.15L-26.9 7.05L-25.35 6.5" />
<path style="fill:none;stroke-width:4;stroke-linecap:round;stroke-linejoin:round;stroke-miterlimit:3;stroke:#FF0000;stroke-opacity:1" d="M4.7 -3.9L4.7 0.8L4.6 1.7L4.1 2.15L3.55 2.1Q3.4 1.9 3.4 1.4L3.4 -3.3Q3.4 -3.75 3.55 -4.05L4.1 -4.5L4.65 -4.55L4.7 -3.9z" />
<path style="fill:none;stroke-width:4;stroke-linecap:round;stroke-linejoin:round;stroke-miterlimit:3;stroke:#FF0000;stroke-opacity:1" d="M0.85 -4.65L0.05 -3.25L-0.2 -1.7L-0.2 2.9Q-0.2 4.1 0.25 4.7Q0.7 5.35 1.65 5.3Q2.6 5.3 4.1 4.6L6.05 3.55L7.3 2.35L8 1L8.2 -0.5L8.2 -5.55Q8.2 -7.25 7.25 -7.6Q6.3 -7.95 4.1 -6.95L2.2 -5.9L0.85 -4.65z" />
<path style="fill:none;stroke-width:4;stroke-linecap:round;stroke-linejoin:round;stroke-miterlimit:3;stroke:#FF0000;stroke-opacity:1" d="M17.65 -12.25Q16.7 -12.6 14.5 -11.6L12.6 -10.55L11.25 -9.3L10.45 -7.9Q10.2 -7.2 10.2 -6.35L10.2 -1.75Q10.2 -0.55 10.65 0.05Q11.1 0.7 12.05 0.65L14.5 -0.05L16.45 -1.1L17.7 -2.3L18.4 -3.65L18.6 -5.15L18.6 -10.2Q18.6 -11.9 17.65 -12.25z" />
<path style="fill:none;stroke-width:4;stroke-linecap:round;stroke-linejoin:round;stroke-miterlimit:3;stroke:#FF0000;stroke-opacity:1" d="M13.95 -8.7L14.5 -9.15L15.05 -9.2L15.1 -8.55L15.1 -3.85L15 -2.95L14.5 -2.5L13.95 -2.55Q13.8 -2.75 13.8 -3.25L13.8 -7.95Q13.8 -8.4 13.95 -8.7z" />
<path style="fill:none;stroke-width:4;stroke-linecap:round;stroke-linejoin:round;stroke-miterlimit:3;stroke:#FF0000;stroke-opacity:1" d="M24.5 -15.95L26.45 -11.8L26.45 -13.75L26.4 -14.45L26.15 -14.7L26.15 -16.65L29.7 -18.25L29.7 -16.3L29.45 -15.9L29.35 -15.6L29.3 -15.3L29.3 -6.95L25.95 -5.4L23.8 -9.45L23.8 -7.75L23.85 -7.05Q23.9 -6.8 24.2 -6.8L24.2 -4.65L20.7 -3.05L20.7 -5.1L21.05 -5.6L21.15 -6.15L21.15 -11.25L21.05 -12.1Q21 -12.3 20.7 -12.25L20.7 -14.2L24.5 -15.95z" />
<path style="fill:none;stroke-width:4;stroke-linecap:round;stroke-linejoin:round;stroke-miterlimit:3;stroke:#FF0000;stroke-opacity:1" d="M-6 -0.15L-6.35 0.3L-6.4 0.9L-6.4 6.75L-5.7 6.3L-5.4 5.65L-5.3 4.75L-5.3 3.2L-2.1 1.8L-2.1 7.2L-10.3 10.85L-10.3 8.9Q-9.9 8.6 -9.85 7.95L-9.9 7.65L-9.9 2.6L-9.95 1.9L-10.2 1.7L-10.2 -0.35L-6 -2.2L-6 -0.15z" />
<path style="fill:none;stroke-width:4;stroke-linecap:round;stroke-linejoin:round;stroke-miterlimit:3;stroke:#FF0000;stroke-opacity:1" d="M-16.2 8.4L-16.7 5.3L-17.2 8.85L-16.2 8.4z" />
<path style="fill:none;stroke-width:4;stroke-linecap:round;stroke-linejoin:round;stroke-miterlimit:3;stroke:#FF0000;stroke-opacity:1" d="M-15.9 11.1L-15.8 10.75L-15.8 10.35L-17.5 11.15L-17.45 11.7L-17.1 11.95L-17.1 13.9L-20.9 15.6L-20.9 13.55L-20.55 12.95L-20.4 12.25L-18.95 3.6L-13.95 1.35L-12.4 8.75Q-12.25 9.5 -11.8 9.55L-11.8 11.5L-16.2 13.5L-16.2 11.55L-15.9 11.1z" />
<path style="fill:none;stroke-width:4;stroke-linecap:round;stroke-linejoin:round;stroke-miterlimit:3;stroke:#FF0000;stroke-opacity:1" d="M-25.35 6.5L-24.05 6.3L-22.9 6.35L-22.9 9L-26.2 10.45L-26.15 10Q-26.15 9.05 -26.8 9.35L-27.2 9.65L-27.4 10.1L-27.15 10.7L-26.55 10.9L-25.8 10.8L-25.05 10.6Q-23.7 10.3 -23.05 10.85Q-22.45 11.45 -22.45 12.6L-22.7 14.35Q-22.95 15.2 -23.35 15.8L-24.4 16.95L-25.5 17.7L-27 18.5L-27.9 18.9L-29.1 19.1L-30.2 19.2L-30.9 18.9L-30.9 16.05L-27.4 14.5L-27.4 15.2L-27.3 15.75L-27.05 15.9L-26.6 15.8L-26.15 15.3L-26.1 14.5Q-26.1 14.15 -26.4 14.05L-27.1 13.95L-28.2 14.15L-29.25 14.35L-30.35 14.05L-30.85 13.25L-31 12L-30.8 10.7L-30.15 9.4L-28.9 8.15L-26.9 7.05L-25.35 6.5z" />
</g>
</svg>
