<?xml version="1.0" encoding="utf-8"?>
<svg version="1.1" id="Layer_1"
xmlns="http://www.w3.org/2000/svg"
xmlns:xlink="http://www.w3.org/1999/xlink"
width="19px" height="13px"
xml:space="preserve">
<g id="PathID_258" transform="matrix(1, 0, 0, 1, -11.3, 1.35)">
<path style="fill:#FFFF4B;fill-opacity:1" d="M28.8 5.2Q28.8 3.15 26.45 1.7Q28.8 6.35 28.05 7.3Q27.45 8.05 26.45 8.75Q24.1 10.2 20.8 10.2Q17.5 10.2 15.15 8.75Q12.8 7.25 12.8 5.2Q12.8 4.05 13.55 3.1Q14.1 2.35 15.15 1.7Q17.5 0.2 20.8 0.2Q24.1 0.2 26.45 1.7Q28.8 3.15 28.8 5.2M26.45 1.7Q24.1 0.2 20.8 0.2Q17.5 0.2 15.15 1.7Q14.1 2.35 13.55 3.1Q12.8 4.05 12.8 5.2Q12.8 7.25 15.15 8.75Q17.5 10.2 20.8 10.2Q24.1 10.2 26.45 8.75Q27.45 8.05 28.05 7.3Q28.8 6.35 28.8 5.2M29.8 5.15Q29.8 6.5 29 7.7L27.15 9.4Q24.5 11.15 20.8 11.15Q17.1 11.15 14.45 9.4Q11.8 7.6 11.8 5.15Q11.8 3.8 12.65 2.65Q13.25 1.7 14.45 0.95Q17.1 -0.85 20.8 -0.85Q24.5 -0.85 27.15 0.95Q29.8 2.7 29.8 5.15" />
<path style="fill:none;stroke-width:1;stroke-linecap:round;stroke-linejoin:round;stroke-miterlimit:3;stroke:#E00000;stroke-opacity:1" d="M28.8 5.2Q28.8 6.35 28.05 7.3Q27.45 8.05 26.45 8.75Q24.1 10.2 20.8 10.2Q17.5 10.2 15.15 8.75Q12.8 7.25 12.8 5.2Q12.8 4.05 13.55 3.1Q14.1 2.35 15.15 1.7Q17.5 0.2 20.8 0.2Q24.1 0.2 26.45 1.7Q28.8 3.15 28.8 5.2z" />
<path style="fill:none;stroke-width:1;stroke-linecap:round;stroke-linejoin:round;stroke-miterlimit:3;stroke:#332317;stroke-opacity:1" d="M29.8 5.15Q29.8 6.5 29 7.7L27.15 9.4Q24.5 11.15 20.8 11.15Q17.1 11.15 14.45 9.4Q11.8 7.6 11.8 5.15Q11.8 3.8 12.65 2.65Q13.25 1.7 14.45 0.95Q17.1 -0.85 20.8 -0.85Q24.5 -0.85 27.15 0.95Q29.8 2.7 29.8 5.15z" />
</g>
</svg>
