<?xml version="1.0" encoding="utf-8"?>
<svg version="1.1" id="Layer_1"
xmlns="http://www.w3.org/2000/svg"
xmlns:xlink="http://www.w3.org/1999/xlink"
width="39px" height="46px"
xml:space="preserve">
<g id="PathID_240" transform="matrix(1, 0, 0, 1, 19, 22.9)">
<path style="fill:#000000;fill-opacity:1" d="M18.9 -13.3L-18.15 22.8L-18.45 22.95L-18.75 22.9L-18.95 22.7L-19 22.4L-13.35 -22.45L-13.25 -22.7L-13 -22.85L-12.75 -22.85L18.7 -14.15L19 -13.95L19.05 -13.6L18.9 -13.3M-17.85 21.1L17.55 -13.4L-12.45 -21.75L-17.85 21.1" />
<path style="fill:#B60000;fill-opacity:1" d="M-10.75 -19.15L13.6 -12.4L-15.15 15.65L-10.75 -19.15" />
<path style="fill:#FFFF33;fill-opacity:1" d="M-12.45 -21.75L17.55 -13.4L-17.85 21.1L-12.45 -21.75M-15.15 15.65L13.6 -12.4L-10.75 -19.15L-15.15 15.65" />
</g>
</svg>
