<?xml version="1.0" encoding="utf-8"?>
<svg version="1.1" id="Layer_1"
xmlns="http://www.w3.org/2000/svg"
xmlns:xlink="http://www.w3.org/1999/xlink"
width="50px" height="41px"
xml:space="preserve">
<g id="PathID_238" transform="matrix(1, 0, 0, 1, 24.85, 20.25)">
<path style="fill:#000000;fill-opacity:1" d="M24.7 -11.7L-24.1 20.2L-24.4 20.25L-24.7 20.15L-24.85 19.85L-24.8 19.55L-6.7 -19.95L-6.45 -20.2L-6.1 -20.2L24.55 -12.6Q24.75 -12.6 24.85 -12.4L24.95 -12.05L24.7 -11.7M-5.95 -19.15L-23.2 18.4L23.2 -11.9L-5.95 -19.15" />
<path style="fill:#B60000;fill-opacity:1" d="M18.25 -11.05L-18.5 12.95L-4.85 -16.8L18.25 -11.05" />
<path style="fill:#FFFF33;fill-opacity:1" d="M23.2 -11.9L-23.2 18.4L-5.95 -19.15L23.2 -11.9M-4.85 -16.8L-18.5 12.95L18.25 -11.05L-4.85 -16.8" />
</g>
</svg>
