<?xml version="1.0" encoding="utf-8"?>
<svg version="1.1" id="Layer_1"
xmlns="http://www.w3.org/2000/svg"
xmlns:xlink="http://www.w3.org/1999/xlink"
width="212px" height="260px"
xml:space="preserve">
<g id="PathID_5" transform="matrix(0.705882, 0, 0, 0.705882, 0, 37.8)">
<path style="fill:#F2E4B7;fill-opacity:1" d="M36.9 -33.5l-1.1 12.1l-2.4 2.2l2 2.3l-1 12l-2.5 2.2l-2.1 -2.2l1.1 -12l2.5 -2.3l-2.1 -2.2l1.1 -12.1l2.4 -2.2l2.1 2.2M34.4 -36.1l-2.5 2.2l-12.4 0l-2 -2.2l2.4 -2.3l12.4 0l2.1 2.3M19.1 -33.5l-0.95 12.1l-2.55 2.2l2.1 2.3l-1.1 12l-2.5 2.2l-2 -2.2l1 -12l2.5 -2.3l-2.1 -2.2l1.1 -12.1l2.5 -2.2l2 2.2M17 -4.5l12.4 0l2 2.2l-2.4 2.3l-12.4 0l-2.1 -2.3l2.5 -2.2" />
</g>
<g id="PathID_6" transform="matrix(0.705882, 0, 0, 0.705882, 48, 37.8)">
<path style="fill:#F2E4B7;fill-opacity:1" d="M30.75 -37.9l-1.55 16.5l-2.4 2.2l2.05 2.2l-1.25 14.8l-2.5 2.2l-2.1 -2.3l1.35 -14.7l2.45 -2.2l-2.1 -2.3l1 -11.85l5.05 -4.55M22.5 -33.9l-2 -2.3l2.4 -2.2l7.45 0l-4.95 4.5l-2.9 0" />
</g>
<g id="PathID_7" transform="matrix(0.705882, 0, 0, 0.705882, 96, 37.8)">
<path style="fill:#F2E4B7;fill-opacity:1" d="M36.1 -33.5l-1.05 11.7l-2.4 2.2l-2.1 -2.2l0.95 -11.7l2.5 -2.2l2.1 2.2M33.6 -36.2l-2.5 2.3l-12.4 0l-2 -2.3l2.4 -2.2l12.5 0l2 2.2M12.3 -16.6l2.55 -2.2l1.95 2.2l-0.95 11.6l-4.9 4.6l1.35 -16.2M17.65 -21.5l12.5 0l2.05 2.3l-2.5 2.2l-12.35 0l-2.1 -2.2l2.4 -2.3M30.75 -2.3l-2.5 2.3l-17 0l4.95 -4.5l12.45 0l2.1 2.2" />
</g>
<g id="PathID_8" transform="matrix(0.705882, 0, 0, 0.705882, 144, 37.8)">
<path style="fill:#F2E4B7;fill-opacity:1" d="M34.95 -38.4l2.1 2.3l-2.55 2.2l-12.35 0l-2.1 -2.2l2.45 -2.3l12.45 0M37.35 -35.7l2.1 2.35l-1.05 11.55l-2.5 2.2l-2.1 -2.2l1.15 -11.55l2.4 -2.35M19.5 -4.5l12.5 0l2 2.2l-2.4 2.3l-12.5 0l-2 -2.3l2.4 -2.2M35.5 -19.2l-2.45 2.3l-12.45 0l-2.1 -2.3l2.5 -2.3l12.4 0l2.1 2.3M35.9 -18.8l2.1 2.3l-1.05 11.6l-2.45 2.3l-2.1 -2.3l1 -11.6l2.5 -2.3" />
</g>
<g id="PathID_9" transform="matrix(0.705882, 0, 0, 0.705882, 0, 84)">
<path style="fill:#F2E4B7;fill-opacity:1" d="M33.5 -38.4l2.1 2.2l-1.3 14.4l-2.4 2.2l-2.1 -2.2l1.3 -14.4l2.4 -2.2M15.85 -38.4l2.05 2.2l-1.3 14.4l-2.5 2.2l-2 -2.2l1.2 -14.4l2.55 -2.2M16.9 -21.4l12.5 0l2 2.2l-2.4 2.3l-12.4 0l-2.1 -2.3l2.4 -2.2M29.4 -16.5l2.4 -2.2l2.1 2.2l-1.3 14.2l-2.4 2.3l-2 -2.2l1.2 -14.3" />
</g>
<g id="PathID_10" transform="matrix(0.705882, 0, 0, 0.705882, 48, 84)">
<path style="fill:#F2E4B7;fill-opacity:1" d="M20.7 -33.9l-4.1 -4.5l16.9 0l2 2.3l-2.45 2.2l-12.35 0M14.7 -21.9l1.4 -16.1l4.2 4.5l-1.1 11.6l-2.4 2.2l-2.1 -2.2M19.65 -21.5l12.35 0l2 2.3l-2.4 2.2l-12.4 0l-2.1 -2.2l2.55 -2.3M15.75 -2.4l2.4 -2.2l12.4 0l2.05 2.2l-2.5 2.3l-12.25 0l-2.1 -2.3M36.5 -16.6l-1 11.6l-2.45 2.2l-2.05 -2.2l1 -11.6l2.4 -2.2l2.1 2.2" />
</g>
<g id="PathID_11" transform="matrix(0.705882, 0, 0, 0.705882, 96, 84)">
<path style="fill:#F2E4B7;fill-opacity:1" d="M34.6 -36.1l-2.5 2.2l-12.4 0l-2.1 -2.2l2.5 -2.3l12.4 0l2.1 2.3M17.2 -35.7l2.1 2.2l-1 11.6l-2.5 2.3l-2.1 -2.3l1.1 -11.6l2.4 -2.2M16.2 -19.2l2.4 -2.3l12.5 0l2 2.3l-2.4 2.3l-12.5 0l-2 -2.3M15.7 -18.8l2.1 2.2l-1 11.7l-2.5 2.2l-2.1 -2.2l1.1 -11.7l2.4 -2.2M17.2 -4.5l12.4 0l2.1 2.2l-2.5 2.3l-12.4 0l-2.1 -2.3l2.5 -2.2M33.5 -18.8l2.1 2.3l-1 11.6l-2.5 2.3l-2.1 -2.3l1.1 -11.6l2.4 -2.3" />
</g>
<g id="PathID_12" transform="matrix(0.705882, 0, 0, 0.705882, 144, 84)">
<path style="fill:#F2E4B7;fill-opacity:1" d="M36.95 -37.9l-1.55 16.5l-2.35 2.2l2.1 2.2l-1.35 14.8l-2.5 2.2l-2 -2.3l1.25 -14.7l2.5 -2.2l-2.1 -2.3l0.95 -11.85l5.05 -4.55M31.5 -33.9l-12.4 0l-2 -2.3l2.4 -2.2l16.95 0l-4.95 4.5" />
</g>
<g id="PathID_13" transform="matrix(0.705882, 0, 0, 0.705882, 0, 132)">
<path style="fill:#F2E4B7;fill-opacity:1" d="M37.9 -33.35l-1 11.55l-2.5 2.2l-2 -2.2l1 -11.55l2.5 -2.35l2 2.35M33.4 -38.4l2.1 2.3l-2.5 2.2l-12.4 0l-2.1 -2.2l2.5 -2.3l12.4 0M18.15 -35.7l2.1 2.2l-1.05 11.6l-2.5 2.3l-2.1 -2.3l1.1 -11.6l2.45 -2.2M17.1 -19.2l2.4 -2.3l12.5 0l2 2.3l-2.4 2.3l-12.5 0l-2 -2.3M16.6 -18.8l2.1 2.2l-1 11.7l-2.5 2.2l-2.1 -2.2l1.1 -11.7l2.4 -2.2M18.15 -4.5l12.35 0l2.1 2.2l-2.5 2.3l-12.4 0l-2.1 -2.3l2.55 -2.2M34.4 -18.8l2.1 2.3l-1 11.6l-2.5 2.3l-2.05 -2.3l0.95 -11.6l2.5 -2.3" />
</g>
<g id="PathID_14" transform="matrix(0.705882, 0, 0, 0.705882, 48, 132)">
<path style="fill:#F2E4B7;fill-opacity:1" d="M38.7 -33.4l-1.1 11.6l-2.35 2.2l-2.15 -2.2l1 -11.6l2.5 -2.3l2.1 2.3M34.2 -38.4l2 2.3l-2.4 2.2l-12.5 0l-2 -2.2l2.4 -2.3l12.5 0M18.9 -35.7l2 2.2l-1 11.6l-2.5 2.3l-2 -2.2l1 -11.7l2.5 -2.2M18.8 -4.5l12.4 0l2.1 2.2l-2.45 2.3l-12.45 0l-2.1 -2.3l2.5 -2.2M17.8 -19.2l2.5 -2.2l12.4 0l2.1 2.2l-2.5 2.3l-12.4 0l-2.1 -2.3M35.15 -18.8l2.1 2.3l-1.05 11.6l-2.5 2.3l-2 -2.3l1 -11.6l2.45 -2.3" />
</g>
</svg>
