<?xml version="1.0" encoding="utf-8"?>
<svg version="1.1" id="Layer_1"
xmlns="http://www.w3.org/2000/svg"
xmlns:xlink="http://www.w3.org/1999/xlink"
width="452px" height="500px"
xml:space="preserve">
<g id="PathID_15" transform="matrix(0.705882, 0, 0, 0.705882, 48, 37.8)">
<path style="fill:#F2E4B7;fill-opacity:1" d="M7.3 -36.3l0 11.9l-2.2 13.4l-1.8 0l-1.85 -12.4l0 -12.3q0 -1.7 0.55 -2.55q0.55 -0.8 1.75 -0.8l1.5 -0.05q0.95 0.05 1.5 0.75q0.55 0.7 0.55 2.05M6.55 -6.5q0.45 0.6 0.45 1.95l0 1.9q0 1.35 -0.45 2q-0.5 0.65 -1.45 0.65l-1.55 -0.05q-1.15 0.05 -1.65 -0.5q-0.55 -0.55 -0.65 -1.9l0 -2.55q0 -1 0.5 -1.6q0.5 -0.6 1.45 -0.6l1.9 0q0.95 0.05 1.45 0.7" />
</g>
<g id="PathID_16" transform="matrix(0.705882, 0, 0, 0.705882, 96, 37.8)">
<path style="fill:#F2E4B7;fill-opacity:1" d="M2.35 -36.65l5.2 0l0 6l-1.2 7l-2.7 0l-1.3 -7l0 -6M10.7 -36.65l5.15 0l0 6l-1.25 7l-2.7 0l-1.2 -7l0 -6" />
</g>
<g id="PathID_17" transform="matrix(0.705882, 0, 0, 0.705882, 144, 37.8)">
<path style="fill:#F2E4B7;fill-opacity:1" d="M17.1 -39.15l-9.5 39.6l-1.6 0l9.55 -39.6l1.55 0M6 -39.1q1.75 0 2.65 1.05q0.95 1.05 0.95 2.95l0 11.65q0 1.85 -1 2.95q-0.95 1.1 -2.6 1.1q-1.8 0 -2.75 -1.05q-0.95 -1.1 -0.95 -3.15l0 -11.5q0 -1.95 0.95 -3q0.95 -1 2.75 -1M5.55 -33.85q-0.5 0.05 -0.85 0.4q-0.3 0.3 -0.3 0.85l0 6.6q0 0.6 0.3 0.95q0.3 0.3 0.85 0.3l0.75 0q0.6 0.05 0.9 -0.3l0.3 -1.15l0 -6.3l-0.3 -0.95q-0.3 -0.35 -0.9 -0.4l-0.75 0M16.6 -13.9l-0.9 0.35q-0.25 0.3 -0.25 1l0 6.4q0 0.7 0.25 1.05q0.25 0.35 0.75 0.35l0.75 0q0.8 0.05 1.1 -0.3q0.3 -0.35 0.3 -1.05l0 -6.4l-0.25 -1.1l-0.95 -0.3l-0.8 0M19.7 -18.1q0.95 1.05 0.95 2.95l0 11.65q0 1.9 -0.95 2.95q-0.9 1.05 -2.55 1.05q-1.85 0 -2.8 -1q-0.95 -1.05 -0.95 -3.05l0 -11.6q0 -1.95 0.95 -3q0.95 -1.05 2.7 -1.05q1.75 0 2.65 1.1" />
</g>
<g id="PathID_18" transform="matrix(0.705882, 0, 0, 0.705882, 192, 37.8)">
<path style="fill:#F2E4B7;fill-opacity:1" d="M2.3 -30.5l0 -6.15l5.2 0l0 6.15l-1.25 6.85l-2.75 0l-1.2 -6.85" />
</g>
<g id="PathID_19" transform="matrix(0.705882, 0, 0, 0.705882, 240, 37.8)">
<path style="fill:#F2E4B7;fill-opacity:1" d="M9.2 -33.5q-2.85 1.5 -4.25 3.65q-1.4 2.1 -1.4 4.8l0 18.8q0 2.7 1.45 4.75q1.4 2.1 4.2 3.5l0 1.85l-1.1 -0.5l-0.85 -0.45l-0.8 -0.5l-0.65 -0.55l-0.45 -0.35l-0.45 -0.45q-1.5 -1.5 -2.3 -3.3q-0.8 -1.85 -0.8 -3.8l0 -18.9q0 -2.15 0.85 -4.1q0.8 -1.9 2.4 -3.5l0.45 -0.45l0.4 -0.4l0.6 -0.45l0.7 -0.4l0.9 -0.5l1.1 -0.55l0 1.8" />
</g>
<g id="PathID_20" transform="matrix(0.705882, 0, 0, 0.705882, 288, 37.8)">
<path style="fill:#F2E4B7;fill-opacity:1" d="M2.1 -34.75l0.9 0.45l0.65 0.45l0.6 0.5l0.5 0.35l0.5 0.5q1.5 1.55 2.35 3.4q0.8 1.8 0.8 3.75l0 19.25q0 2 -0.8 3.85q-0.85 1.85 -2.35 3.4l-0.5 0.5l-0.5 0.35l-0.6 0.5l-0.65 0.45l-0.9 0.45l-1.05 0.5l0 -1.9q2.65 -1.2 4.15 -3.35q1.45 -2.15 1.45 -4.85l0 -18.65q0 -1.75 -0.55 -3.25q-0.55 -1.55 -1.75 -2.8l-0.25 -0.3l-0.25 -0.3l-0.5 -0.4l-0.55 -0.4l-0.75 -0.5l-1 -0.55l0 -1.95l1.05 0.55" />
</g>
<g id="PathID_21" transform="matrix(0.705882, 0, 0, 0.705882, 336, 37.8)">
<path style="fill:#F2E4B7;fill-opacity:1" d="M18.4 -29.95l0 12.2l12.2 0l0 2.65l-12.2 0l0 12.1l-2.7 0l0 -12.1l-12.15 0l0 -2.65l12.15 0l0 -12.2l2.7 0" />
</g>
<g id="PathID_22" transform="matrix(0.705882, 0, 0, 0.705882, 384, 37.8)">
<path style="fill:#F2E4B7;fill-opacity:1" d="M6.15 -7.2l-2.05 9.65l-1.7 0l2.1 -9.7l1.65 0.05" />
</g>
<g id="PathID_23" transform="matrix(0.705882, 0, 0, 0.705882, 0, 84)">
<path style="fill:#F2E4B7;fill-opacity:1" d="M9.25 -16.8l0 2.45l-8.25 0l0 -2.45l8.25 0" />
</g>
<g id="PathID_24" transform="matrix(0.705882, 0, 0, 0.705882, 48, 84)">
<path style="fill:#F2E4B7;fill-opacity:1" d="M6.75 -6.55q0.45 0.55 0.45 1.85l0 2.35q0 1.2 -0.55 1.75q-0.55 0.6 -1.65 0.6l-1.4 -0.05q-1.15 0.05 -1.6 -0.55q-0.5 -0.55 -0.6 -2l0 -2.3q0 -1.05 0.55 -1.65q0.5 -0.65 1.45 -0.65l1.85 0q1 0.05 1.5 0.65" />
</g>
<g id="PathID_25" transform="matrix(0.705882, 0, 0, 0.705882, 96, 84)">
<path style="fill:#F2E4B7;fill-opacity:1" d="M10.3 -35.2l-8.15 39l-1.75 0l8.15 -39l1.75 0" />
</g>
<g id="PathID_26" transform="matrix(0.705882, 0, 0, 0.705882, 144, 84)">
<path style="fill:#F2E4B7;fill-opacity:1" d="M8.4 -39.25q3.2 0 5 1.85q1.8 1.85 1.8 4.95l0 25.9q0 3 -1.8 4.75q-1.85 1.8 -4.9 1.8q-3.2 0 -5.1 -1.8q-1.85 -1.8 -1.85 -4.95l0 -25.75q0 -2.95 1.9 -4.85q1.95 -1.9 4.95 -1.9M9.6 -28.65l-2.6 0q-0.7 0.05 -1.25 0.75q-0.55 0.7 -0.55 1.65l0 13.1q0 1.2 0.6 1.9q0.55 0.7 1.55 0.7l2.45 0q0.7 0.05 1.2 -0.6q0.55 -0.65 0.55 -1.65l0 -13.6q0 -0.9 -0.55 -1.5q-0.5 -0.6 -1.4 -0.7l0 -0.05" />
</g>
<g id="PathID_27" transform="matrix(0.705882, 0, 0, 0.705882, 192, 84)">
<path style="fill:#F2E4B7;fill-opacity:1" d="M10.35 -39.1l0 28.45l2.95 0l0 10.6l-9.9 0l0 -10.6l3.25 0l0 -17.7l-3.2 0l0 -6.95l3.55 -3.8l3.35 0" />
</g>
<g id="PathID_28" transform="matrix(0.705882, 0, 0, 0.705882, 240, 84)">
<path style="fill:#F2E4B7;fill-opacity:1" d="M8.25 -39.1q3.3 0 5.15 2.05q1.85 2.1 1.85 5.85l0 4.95l-0.2 1.3l-0.5 1.4l-0.5 0.95l-0.55 0.95l-7.65 11.05l3.95 0q0.7 0.05 1.2 -0.4q0.5 -0.5 0.5 -1.25l0 -3.2l3.65 0l0 15.4l-13.7 0l0 -10.5l8.35 -12.1l0.1 -0.2l0.15 -0.2l0.25 -0.35l0.65 -0.95l0.4 -0.7l0.2 -0.8l0.05 -0.9q-0.05 -1 -0.4 -1.35q-0.35 -0.35 -1.1 -0.35l-3.25 -0.05q-0.8 0.05 -1.2 0.5q-0.4 0.4 -0.4 1.35l0 3l-3.75 0l0 -8.85q0 -2.8 1.9 -4.7q1.95 -1.9 4.85 -1.9" />
</g>
<g id="PathID_29" transform="matrix(0.705882, 0, 0, 0.705882, 288, 84)">
<path style="fill:#F2E4B7;fill-opacity:1" d="M8.1 -39.2q3 0 4.95 2.1q1.95 2.1 1.95 5.3l0 7.7q0 1.7 -1.05 2.75q-1.05 1.05 -3.2 1.55l0 0.05q2.15 0.4 3.25 1.55q1.1 1.15 1.1 2.95l0 8.75q0 2.9 -1.95 4.7q-1.95 1.85 -4.9 1.85q-3 0 -4.95 -1.75q-1.9 -1.75 -1.9 -4.6l0 -9.25l3.7 0l0 2.65q0 1.25 0.45 1.85q0.5 0.6 1.5 0.6l2.45 0q1 0 1.5 -0.55q0.45 -0.55 0.45 -1.8l0 -3.3q0 -0.9 -0.45 -1.35q-0.5 -0.5 -1.35 -0.5l-3.25 0l0 -3.45l3.05 0q0.95 0.05 1.45 -0.65q0.55 -0.75 0.55 -2l0 -2.4q0 -1.05 -0.55 -1.55q-0.55 -0.55 -1.6 -0.55l-2.1 -0.05q-1.1 0.05 -1.65 0.6q-0.55 0.55 -0.55 1.7l0 2.5l-3.6 0l0 -9.95q0 -2.25 1.95 -3.85q1.95 -1.6 4.75 -1.6" />
</g>
<g id="PathID_30" transform="matrix(0.705882, 0, 0, 0.705882, 336, 84)">
<path style="fill:#F2E4B7;fill-opacity:1" d="M11.5 -31.9l-7.35 13.6l7.45 0l0 -13.6l-0.1 0M15.1 -39l0 20.7l2.2 0l0 3.6l-2.25 0l0 4l2.3 0l0 10.65l-8.4 0l0 -10.65l2.65 0l0 -4l-10.55 0l0 -5.65l10.25 -18.65l3.8 0" />
</g>
<g id="PathID_31" transform="matrix(0.705882, 0, 0, 0.705882, 384, 84)">
<path style="fill:#F2E4B7;fill-opacity:1" d="M15.1 -39.2l0 10.7l-1.1 0.15l-1.25 0.1l-1.55 0.1l-1.3 0l-2.45 -0.05l-2.35 -0.2l0 6.7l0.3 -0.1l0.3 -0.15l1.75 -0.6l1.9 -0.2q2.65 0 4.2 1.7q1.55 1.7 1.55 4.6l0 10.2q0 2.7 -1.95 4.5q-1.95 1.8 -4.75 1.8q-3 0 -5 -1.95q-1.95 -2 -1.95 -5.1l0 -8.6l3.65 0l0 2.2q0 1.3 0.75 2.05q0.7 0.75 1.85 0.75l1.3 0q1.2 0.05 1.85 -0.75q0.65 -0.85 0.65 -2.25l0 -2.55q0 -1.45 -0.9 -2.3q-0.85 -0.85 -2.4 -0.85l-0.45 0.05l-0.45 0.05l-1.2 0.35l-1.45 0.8l-3.1 -1.7l0 -19.45l1.45 0.3l1.45 0.15l1.6 0.15l1.7 0l1.6 -0.05l1.9 -0.1l2.1 -0.2l1.75 -0.25" />
</g>
<g id="PathID_32" transform="matrix(0.705882, 0, 0, 0.705882, 0, 132)">
<path style="fill:#F2E4B7;fill-opacity:1" d="M8.2 -39.25q3.25 0 5.15 1.95q1.9 1.95 1.9 5.35l0 7.95l-3.7 0l0 -2.1q0 -1.25 -0.4 -1.85q-0.45 -0.65 -1.3 -0.65l-2.8 -0.1q-0.8 0.05 -1.3 0.6q-0.55 0.5 -0.55 1.35l0 6.2q1 -0.6 2.15 -0.85l2.8 -0.3q2.55 0 3.8 1.2q1.25 1.2 1.25 3.7l0 9.8q0 3.15 -1.85 5.1q-1.9 1.95 -5 1.95q-2.8 0 -4.8 -1.8q-2 -1.8 -2 -4.5l0 -25.7q0 -3.25 1.85 -5.3q1.8 -2 4.8 -2M10.95 -17.65q-0.6 -0.5 -1.95 -0.5l-1.35 0q-1.25 0.05 -1.85 0.6q-0.6 0.55 -0.6 1.7l0 3.15q0 1.05 0.65 1.6q0.65 0.5 1.95 0.5l1.7 0q0.95 0.05 1.5 -0.5q0.55 -0.55 0.55 -1.6l0 -3.5q0 -1 -0.6 -1.45" />
</g>
<g id="PathID_33" transform="matrix(0.705882, 0, 0, 0.705882, 48, 132)">
<path style="fill:#F2E4B7;fill-opacity:1" d="M15.15 -39.1l0 10l-1.4 3.5l-3.55 9.55l-2.7 8.1l-0.5 1.6l-0.4 1.4l-0.1 0.45l-0.1 0.4l-0.45 1.85l-0.5 2.25l-3.7 -0.05l0.45 -2.1l0.4 -1.75l0.1 -0.4l0.15 -0.5l0.25 -1.1l0.4 -1.15l0.1 -0.35l0.1 -0.35l2.3 -7.25q1.3 -3.85 3.7 -9.95l1.3 -3.45l-5.85 0l0 4.4l-3.6 0l0 -15.1l13.6 0" />
</g>
<g id="PathID_34" transform="matrix(0.705882, 0, 0, 0.705882, 96, 132)">
<path style="fill:#F2E4B7;fill-opacity:1" d="M8.25 -39.25q3.2 0 5.05 1.8q1.8 1.85 1.8 4.9l0 8.9q0 1.55 -0.65 2.45q-0.65 0.95 -2.1 1.45l0 0.05q1.4 0.25 2.1 1.05q0.65 0.8 0.65 2.15l0 9.25q0 3.2 -1.85 5.25q-1.85 2 -4.8 2q-3.15 0 -5.1 -2.05q-1.9 -2.1 -1.9 -5.6l0 -8.1q0 -1.8 0.6 -2.65q0.6 -0.9 2.15 -1.25l0 -0.15q-1.4 -0.45 -2.05 -1.35q-0.65 -0.85 -0.65 -2.1l0 -9.25q0 -3.05 1.85 -4.9q1.85 -1.85 4.9 -1.85M7.25 -28.7q-1.05 0.05 -1.6 0.55q-0.55 0.5 -0.55 1.45l0 3.3q0 1.05 0.6 1.5q0.55 0.5 1.65 0.5l2.3 0q0.85 0.05 1.35 -0.5q0.55 -0.5 0.55 -1.4l0 -3.4q0 -0.8 -0.55 -1.4q-0.5 -0.55 -1.35 -0.55l-2.4 -0.05M11.1 -17.4q-0.5 -0.6 -1.3 -0.6l-2.7 0q-0.95 0.05 -1.45 0.55q-0.55 0.55 -0.55 1.65l0 3.4q0 0.95 0.55 1.4q0.5 0.45 1.55 0.45l2.5 0q0.8 0.05 1.3 -0.45q0.55 -0.5 0.55 -1.35l0 -3.5q0 -1 -0.45 -1.55" />
</g>
<g id="PathID_35" transform="matrix(0.705882, 0, 0, 0.705882, 144, 132)">
<path style="fill:#F2E4B7;fill-opacity:1" d="M8.35 -39.25q3 0 4.95 1.9q1.9 1.9 1.9 4.75l0 25q0 3.5 -1.9 5.6q-1.9 2.05 -5.2 2.05q-2.8 0 -4.75 -1.9q-1.95 -1.95 -1.95 -4.75l0 -8.7l3.7 0l0 2.55q0 1.25 0.5 1.75q0.55 0.5 1.75 0.5l1.95 0q1 0.05 1.6 -0.5q0.65 -0.55 0.65 -1.5l0 -6.2q-1.3 0.7 -2.45 1l-2.3 0.3q-2.65 0 -3.95 -1.2q-1.3 -1.25 -1.3 -3.75l0 -8.85q0 -3.9 1.75 -6q1.75 -2.05 5.05 -2.05M7.8 -28.6q-1.3 0.05 -1.95 0.75q-0.65 0.7 -0.65 1.95l0 3q0 0.85 0.6 1.35q0.6 0.55 1.55 0.55l1.85 0q1.15 0.05 1.75 -0.5q0.6 -0.5 0.6 -1.45l0 -3.75q0 -0.75 -0.6 -1.3q-0.65 -0.55 -1.6 -0.55l-1.55 -0.05" />
</g>
<g id="PathID_36" transform="matrix(0.705882, 0, 0, 0.705882, 192, 132)">
<path style="fill:#F2E4B7;fill-opacity:1" d="M1.4 -28.85q0 -1 0.5 -1.5q0.5 -0.5 1.5 -0.5l2 -0.05q0.75 0.05 1.25 0.65q0.5 0.55 0.5 1.45l0 3.05q0 0.9 -0.5 1.45q-0.5 0.55 -1.3 0.55l-1.8 0q-1.05 0.05 -1.55 -0.4q-0.5 -0.45 -0.6 -1.5l0 -3.2M6.75 -6.5q0.45 0.6 0.45 1.75l0 2.2q0 1.25 -0.55 1.9q-0.55 0.65 -1.6 0.65l-1.65 -0.05q-0.95 0.05 -1.4 -0.55q-0.5 -0.6 -0.6 -1.9l0 -2.35q0 -1.1 0.55 -1.7q0.5 -0.6 1.5 -0.6l1.95 0q0.85 0.05 1.35 0.65" />
</g>
<g id="PathID_37" transform="matrix(0.705882, 0, 0, 0.705882, 240, 132)">
<path style="fill:#F2E4B7;fill-opacity:1" d="M1.7 -28.8q0 -1 0.5 -1.55q0.5 -0.6 1.45 -0.6l2 -0.05q0.9 0.05 1.4 0.65q0.5 0.6 0.5 1.65l0 2.45q0 1.25 -0.5 1.8q-0.45 0.55 -1.55 0.55l-1.65 0q-1.15 0.05 -1.65 -0.6q-0.5 -0.65 -0.5 -2.3l0 -2M5.1 -7.3l-2.15 9.75l-1.65 0l2.1 -9.75l1.7 0" />
</g>
<g id="PathID_38" transform="matrix(0.705882, 0, 0, 0.705882, 288, 132)">
<path style="fill:#F2E4B7;fill-opacity:1" d="M30.55 -23.75l0 2.7l-26.95 0l0 -2.7l26.95 0M30.55 -12.1l0 2.75l-26.95 0l0 -2.75l26.95 0" />
</g>
<g id="PathID_39" transform="matrix(0.705882, 0, 0, 0.705882, 336, 132)">
<path style="fill:#F2E4B7;fill-opacity:1" d="M8.3 -39.1q3.35 0 4.95 1.55q1.6 1.5 1.6 4.65l0 4.4l-0.15 2.2l-0.6 1.55l-0.05 0.05l-0.25 0.4l-0.5 0.65l-0.65 0.85l-1.3 1.75l-2.4 3.25l-3.45 0l6 -8.15l0.35 -0.8l0.15 -1.25l0 -2.1q0 -0.85 -0.5 -1.35q-0.55 -0.5 -1.45 -0.5l-3.5 -0.05q-0.85 0.05 -1.35 0.6q-0.5 0.55 -0.5 1.4l0 6.2l-2.9 0l0 -9.05q0 -3.15 1.6 -4.7q1.65 -1.55 4.9 -1.55M5.35 -4.55q0 -1.2 0.55 -1.85q0.55 -0.65 1.6 -0.65l1.7 0q1 0.05 1.5 0.6q0.45 0.55 0.45 1.65l0 2.25q0 1.35 -0.45 1.95q-0.45 0.6 -1.45 0.6l-1.65 0q-1.15 0 -1.6 -0.5q-0.5 -0.55 -0.6 -1.85l-0.05 -2.2" />
</g>
<g id="PathID_40" transform="matrix(0.705882, 0, 0, 0.705882, 384, 132)">
<path style="fill:#F2E4B7;fill-opacity:1" d="M11.5 -28.95l-2.2 9.35l4.6 0l-2.3 -9.35l-0.1 0M17.1 -39.1l0 10.6l-1.85 0l4.3 17.9l2.5 0l0 10.6l-8.85 0l-0.1 -10.6l2.95 0l-1.4 -5.35l-6.3 0l-1.25 5.35l2.9 0l0 10.6l-8.95 0l0 -10.6l2.45 0l4.45 -17.9l-1.95 0l0 -10.6l11.1 0" />
</g>
<g id="PathID_41" transform="matrix(0.705882, 0, 0, 0.705882, 0, 180)">
<path style="fill:#F2E4B7;fill-opacity:1" d="M7.55 -28.45l0 7.2l3.85 0q1 0.05 1.65 -0.55q0.7 -0.55 0.7 -1.4l0 -3q0 -0.95 -0.6 -1.6q-0.55 -0.6 -1.5 -0.6l-4.1 -0.05M9.85 -39.1q3.4 0.05 5.4 1.95q2 1.9 2 5.05l0 8.3l0 0.35l-0.05 0.3l-0.5 1.7l-0.9 1.05l-1.6 0.65l0 0.1l1.95 0.2q0.95 0.2 1.7 1.35q0.75 1.15 0.75 2.6l0 8.05q0 3.6 -2.15 5.55q-2.1 1.9 -6.05 1.9l-9.15 0l0 -10.6l2.7 0l0 -17.9l-2.7 0l0 -10.6l8.6 0M13 -17.75l-5.45 0l0 7.1l5.5 0q0.9 0.05 1.4 -0.5q0.5 -0.5 0.5 -1.45l0 -3.2q0 -0.85 -0.5 -1.4q-0.55 -0.55 -1.45 -0.55" />
</g>
<g id="PathID_42" transform="matrix(0.705882, 0, 0, 0.705882, 48, 180)">
<path style="fill:#F2E4B7;fill-opacity:1" d="M16.25 -39.1l0 15.8l-3.6 0l0 -2.75q0 -1.25 -0.75 -1.9q-0.75 -0.65 -2.2 -0.65q-1.8 0 -2.6 0.75q-0.85 0.7 -0.85 2.35l0 12.15q0 1.6 0.75 2.3q0.7 0.65 2.3 0.65q1.75 0 2.55 -0.65q0.8 -0.65 0.8 -2.1l0 -3.05l3.6 0l0.05 9.55q0 2.85 -1.8 4.8q-1.85 1.95 -4.55 1.95q-3.3 0 -5.25 -2.2q-1.95 -2.25 -1.95 -6.15l0 -25.05q0 -2.55 1.45 -4.2q1.45 -1.65 3.65 -1.65q1.65 0 2.8 0.75q1.15 0.75 1.95 2.45l0.1 -0.05l0 -3.1l3.55 0" />
</g>
<g id="PathID_43" transform="matrix(0.705882, 0, 0, 0.705882, 96, 180)">
<path style="fill:#F2E4B7;fill-opacity:1" d="M7.4 -28.45l0 17.85l3.3 0q1.65 0.05 2.45 -0.9q0.8 -1 0.8 -2.85l0 -10.35q0 -1.75 -0.8 -2.75q-0.75 -0.95 -2.15 -0.95l-3.6 -0.05M15.65 -36.85q1.85 2.25 1.85 5.9l0 23.05q0 3.9 -2.15 5.9q-2.15 2 -6.3 2l-8 0l0 -10.6l2.75 0l0 -17.9l-2.7 0l0 -10.6l9.65 0q3.05 0.05 4.9 2.25" />
</g>
<g id="PathID_44" transform="matrix(0.705882, 0, 0, 0.705882, 144, 180)">
<path style="fill:#F2E4B7;fill-opacity:1" d="M17.5 -39.1l-0.05 15.8l-3.55 0l0 -3.4q0 -0.8 -0.5 -1.3q-0.5 -0.45 -1.35 -0.45l-4.8 -0.05l0 7.25l5.4 0l0 3.4l-5.4 0l0 7.2l4.65 0q0.85 0.05 1.4 -0.45q0.6 -0.5 0.6 -1.25l0 -3.9l3.6 0l0 16.25l-16.55 0l0 -10.6l2.75 0l0 -17.9l-2.8 0l0 -10.6l16.6 0" />
</g>
<g id="PathID_45" transform="matrix(0.705882, 0, 0, 0.705882, 192, 180)">
<path style="fill:#F2E4B7;fill-opacity:1" d="M17.65 -39.1l0 15.9l-3.55 0l0 -3.35q0 -0.85 -0.7 -1.35q-0.65 -0.55 -1.65 -0.55l-4.3 -0.05l0 7.25l5.75 0l0 3.4l-5.75 0l0.05 7.25l2.95 0l0 10.6l-9.3 0l0 -10.6l2.7 0l0 -17.9l-2.7 0l0 -10.6l16.5 0" />
</g>
<g id="PathID_46" transform="matrix(0.705882, 0, 0, 0.705882, 240, 180)">
<path style="fill:#F2E4B7;fill-opacity:1" d="M16.1 -39.15l0 15.8l-3.5 0l0 -2.45q0 -1.4 -0.7 -2.1q-0.65 -0.7 -2.1 -0.7l-0.85 -0.05q-1.4 0.05 -2.1 0.7q-0.7 0.65 -0.7 2l0 12.5q0 1.4 0.7 2.15q0.7 0.75 1.9 0.75l1.45 0q0.9 0.05 1.65 -0.6q0.75 -0.6 0.75 -1.45l0 -5.25l-2.7 0l0 -3.5l8.9 0l0 3.5l-2.6 0l0 17.8l-3.45 0l0.05 -3.4l-0.1 -0.1q-0.7 1.75 -2.05 2.7q-1.35 0.95 -2.95 0.95q-2.2 0 -3.7 -2q-1.45 -2.05 -1.45 -5.15l0 -25.5q0 -3 1.45 -4.8q1.5 -1.8 3.9 -1.8q1.7 0 2.85 0.95q1.15 0.95 1.8 2.95l0.1 -0.15l-0.05 -3.75l3.5 0" />
</g>
<g id="PathID_47" transform="matrix(0.705882, 0, 0, 0.705882, 288, 180)">
<path style="fill:#F2E4B7;fill-opacity:1" d="M20.25 -28.5l-2.7 0l-0.05 17.9l2.75 0l0 10.6l-8.85 0l0 -10.6l2.55 0l0 -7.25l-6.55 0l-0.05 7.25l2.6 0l0 10.6l-8.95 0l0 -10.6l2.75 0l0 -17.9l-2.75 0l0 -10.6l8.95 0l0 10.6l-2.55 0l0 7.2l6.55 0l0 -7.2l-2.6 0l0 -10.6l8.9 0l0 10.6" />
</g>
<g id="PathID_48" transform="matrix(0.705882, 0, 0, 0.705882, 336, 180)">
<path style="fill:#F2E4B7;fill-opacity:1" d="M10.8 -28.5l-3.05 0l0 17.9l3 0l0 10.6l-9.65 0l0 -10.6l3.05 0l0 -17.9l-3.05 0l0 -10.6l9.7 0l0 10.6" />
</g>
<g id="PathID_49" transform="matrix(0.705882, 0, 0, 0.705882, 384, 180)">
<path style="fill:#F2E4B7;fill-opacity:1" d="M15.35 -39.1l0 10.6l-2.8 0l0 23.55q0 2.45 -1.25 3.75q-1.25 1.3 -3.65 1.3q-2.9 0 -4.2 -1.1q-1.3 -1.1 -1.3 -3.55l0 -11.65l3.55 0l0 3.65q0 1.15 0.4 1.65q0.35 0.5 1.2 0.5q0.85 0 1.25 -0.45q0.4 -0.5 0.4 -1.6l0 -16.05l-2.8 0l0 -10.6l9.2 0" />
</g>
<g id="PathID_50" transform="matrix(0.705882, 0, 0, 0.705882, 0, 228)">
<path style="fill:#F2E4B7;fill-opacity:1" d="M20.35 -28.5l-1.95 0l-8.05 8.8l7.85 9.1l2.15 0l0 10.6l-8.65 0l0 -10.6l2.2 0l-6.7 -7.75l0 7.75l2.35 0l0 10.6l-8.65 0l0 -10.6l2.65 0l0.05 -17.9l-2.65 0l0 -10.6l8.6 0l0 10.6l-2.35 0l0 7.55l6.95 -7.55l-2.45 0l0 -10.6l8.65 0l0 10.6" />
</g>
<g id="PathID_51" transform="matrix(0.705882, 0, 0, 0.705882, 48, 228)">
<path style="fill:#F2E4B7;fill-opacity:1" d="M10.25 -39.1l0 10.6l-2.75 0l0 17.9l3.8 0q1 0.05 1.6 -0.5q0.6 -0.6 0.6 -1.6l0 -5.3l3.55 0l0 18l-15.8 0l0 -10.6l2.65 0l0 -17.9l-2.65 0l0 -10.6l9 0" />
</g>
<g id="PathID_52" transform="matrix(0.705882, 0, 0, 0.705882, 96, 228)">
<path style="fill:#F2E4B7;fill-opacity:1" d="M22.3 -29.95l-6.5 29.95l-1.9 0l-6.4 -29.8l-0.1 0l0 19.2l2.6 0l0 10.6l-8.75 0l0 -10.6l2.55 0l0 -17.9l-2.5 0l0 -10.6l7.75 0l5.8 26.55l0.1 0l5.8 -26.55l7.8 0l0 10.6l-2.6 0l0 17.9l2.6 0l0 10.6l-8.75 0l0 -10.6l2.6 0l0 -19.35l-0.1 0" />
</g>
<g id="PathID_53" transform="matrix(0.705882, 0, 0, 0.705882, 144, 228)">
<path style="fill:#F2E4B7;fill-opacity:1" d="M20.2 -39.1l0 10.6l-2.55 0l0 28.5l-4 0l-6.05 -28.95l-0.1 0l0 18.35l2.3 0l0 10.6l-8.7 0l0.05 -10.6l2.75 0l0 -17.9l-2.75 0l-0.05 -10.6l7.55 0l5.35 26.05l0.1 0l0 -15.45l-1.75 0l0 -10.6l7.85 0" />
</g>
<g id="PathID_54" transform="matrix(0.705882, 0, 0, 0.705882, 192, 228)">
<path style="fill:#F2E4B7;fill-opacity:1" d="M4.4 -37.1q1.85 -2.05 5.7 -2.05q3.65 0 5.45 2q1.8 2.05 1.8 6.05l0 22.85q0 4.3 -1.75 6.35q-1.8 2 -5.6 2q-3.6 0 -5.5 -1.95q-1.95 -1.95 -1.95 -5.55l0 -23.25q0 -4.35 1.85 -6.45M6.85 -27.95q-0.7 0.55 -0.7 2.05l0 12.25q0 1.95 0.65 2.6q0.7 0.65 2.45 0.65l1.6 0q1.55 0.05 2.25 -0.6q0.7 -0.65 0.7 -2.15l0 -12.9q0 -1.25 -0.65 -1.85q-0.65 -0.6 -2.3 -0.65l0 -0.05l-1.65 0q-1.65 0.05 -2.35 0.65" />
</g>
<g id="PathID_55" transform="matrix(0.705882, 0, 0, 0.705882, 240, 228)">
<path style="fill:#F2E4B7;fill-opacity:1" d="M7.4 -28.5l0 6.95l5.25 0q0.95 0.05 1.5 -0.5q0.5 -0.5 0.5 -1.5l0 -2.5q0 -1.3 -0.5 -1.85q-0.55 -0.55 -1.75 -0.55l-5 -0.05M11.2 -39.1q3.4 0.05 5.25 1.85q1.8 1.85 1.8 5.25l0 8.4q0 2.7 -1.4 4.2q-1.35 1.5 -3.75 1.5l-5.7 0l0 7.3l3.45 0l0 10.6l-9.9 0l0 -10.6l2.85 0l0 -17.9l-2.8 0l0 -10.6l10.2 0" />
</g>
<g id="PathID_56" transform="matrix(0.705882, 0, 0, 0.705882, 288, 228)">
<path style="fill:#F2E4B7;fill-opacity:1" d="M4.25 -37.1q1.8 -2.05 5.65 -2.05q3.8 0 5.6 2q1.8 2.05 1.8 6.3l0 22.25q0 2.55 -0.4 4.1q-0.4 1.55 -1.4 2.6l-0.1 0.1l0 0.05l-0.4 0.4l-0.45 0.3l-0.5 0.3l-0.6 0.35l0.05 0.1l0.1 0l0.35 0.25l0.45 0.1l0.35 0.15l0.3 0l1.95 0l0 7.65l-2.6 0q-3.3 0 -5.1 -2.05q-1.8 -2 -2 -5.9l-0.75 -0.25l-0.55 -0.25l-0.5 -0.3l-0.4 -0.25l-0.2 -0.2l-0.25 -0.15q-1.1 -1.05 -1.65 -2.65q-0.55 -1.6 -0.55 -3.85l0 -22.7q0 -4.35 1.8 -6.4M6.8 -28q-0.75 0.55 -0.75 2.1l0 12.85q0 1.2 0.5 1.8q0.5 0.6 1.55 0.75l0.05 -0.35l0 -0.3l-0.15 -2.15l-0.55 -1.8l1.95 -2l1.5 2.35q0.5 1.3 0.5 3.05l0.05 1.25q1.1 -0.05 1.7 -0.65q0.55 -0.6 0.55 -1.7l0 -13.3q0 -1.3 -0.7 -1.85q-0.7 -0.6 -2.45 -0.65l-0.95 -0.05q-2 0.05 -2.8 0.65" />
</g>
<g id="PathID_57" transform="matrix(0.705882, 0, 0, 0.705882, 336, 228)">
<path style="fill:#F2E4B7;fill-opacity:1" d="M1.25 -28.5l0 -10.6l9.8 0q2.85 0.05 4.75 2.05q1.9 2.05 1.9 5.05l0 7.15q0 2.45 -1 3.7q-0.95 1.25 -3.25 1.6l0 0.05q1.8 0.6 2.45 1.35q0.65 0.75 0.65 2.4l0 3q0 1.35 0.35 1.8q0.35 0.4 1.45 0.4l2.15 0l0 10.55l-3.3 0q-1.8 0 -3 -1.1q-1.25 -1.15 -1.25 -2.8l0 -12.55q0 -0.85 -0.55 -1.3q-0.55 -0.4 -1.65 -0.4l-3.15 0l0 7.6l2.95 0l0 10.55l-9.25 0l0 -10.55l2.7 0l0 -17.95l-2.75 0M13.75 -27.95q-0.5 -0.5 -1.35 -0.5l-4.8 -0.05l0 6.95l4.4 0q1.15 0.05 1.7 -0.6q0.5 -0.65 0.5 -2.2l0 -2.2q0 -0.9 -0.45 -1.4" />
</g>
<g id="PathID_58" transform="matrix(0.705882, 0, 0, 0.705882, 384, 228)">
<path style="fill:#F2E4B7;fill-opacity:1" d="M16.05 -39.1l0 15.1l-3.55 0l0 -3.05q0 -0.55 -0.4 -1.05q-0.45 -0.45 -1.05 -0.45l-3.55 -0.05q-0.8 0.05 -1.2 0.55q-0.4 0.5 -0.4 1.65l0 2.7q0 1.2 0.55 1.7q0.55 0.5 1.7 0.5l2.6 0q2.6 0.05 3.95 1.15q1.35 1.1 1.35 3.25l0 11.1q0 2.6 -1.55 4.35q-1.6 1.7 -3.9 1.7q-1.65 0 -2.8 -0.95q-1.2 -0.95 -1.85 -2.95l-0.1 -0.05l0 3.85l-3.6 0l0 -15.4l3.65 0l0 2.55q0 1.35 0.5 1.9q0.55 0.55 1.65 0.55l2.2 0q1.25 0.05 1.75 -0.5q0.5 -0.6 0.5 -1.9l0 -2.85q0 -1.25 -0.6 -1.85q-0.55 -0.6 -1.75 -0.6l-2.55 0q-2.5 0.05 -3.85 -1.2q-1.4 -1.25 -1.4 -3.55l0 -9.55q0 -3 1.5 -4.85q1.5 -1.85 3.95 -1.85l0.35 0l0.35 0.05q1.2 0.25 2.25 1.15q1.05 0.95 1.45 2.15l0.2 0.9l0.1 0l0 -4.2l3.55 0" />
</g>
<g id="PathID_59" transform="matrix(0.705882, 0, 0, 0.705882, 0, 276)">
<path style="fill:#F2E4B7;fill-opacity:1" d="M18.3 -39.1l-0.05 15.15l-3.55 0l0 -2.95q0 -0.65 -0.35 -1.1q-0.35 -0.45 -0.9 -0.45l-1.65 -0.05l0 17.9l3.05 0l0 10.6l-9.7 0l0 -10.6l3.05 0l0 -17.9l-1.45 0q-0.7 0.05 -1.05 0.45q-0.35 0.4 -0.35 1.15l-0.05 2.95l-3.55 0l0 -15.15l16.55 0" />
</g>
<g id="PathID_60" transform="matrix(0.705882, 0, 0, 0.705882, 48, 276)">
<path style="fill:#F2E4B7;fill-opacity:1" d="M20.45 -28.5l-2.9 0l0 20.9q0 3.4 -1.9 5.55q-1.9 2.15 -4.95 2.15q-3.05 0 -4.95 -1.95q-1.9 -1.95 -1.9 -5.2l0 -21.45l-2.75 0l0 -10.6l8.95 0l0 10.6l-2.55 0l0 15.5q0 1.3 0.6 1.95q0.6 0.6 1.9 0.6l1.75 0q1.1 0.05 1.7 -0.65q0.55 -0.7 0.55 -2.05l0 -15.35l-2.4 0l0 -10.6l8.85 0l0 10.6" />
</g>
<g id="PathID_61" transform="matrix(0.705882, 0, 0, 0.705882, 96, 276)">
<path style="fill:#F2E4B7;fill-opacity:1" d="M22 -28.5l-2.5 0l-6.35 28.5l-3.25 0l-6.35 -28.5l-2.45 0l0 -10.6l8.85 0l0 10.6l-2.75 0l4.25 19.25l0.1 0l4.3 -19.25l-2.8 0l0 -10.6l8.95 0l0 10.6" />
</g>
<g id="PathID_62" transform="matrix(0.705882, 0, 0, 0.705882, 144, 276)">
<path style="fill:#F2E4B7;fill-opacity:1" d="M29.1 -28.5l-5.85 28.5l-3.1 0l-3.65 -17.75l-0.1 0l-3.6 17.75l-3.1 0l-5.95 -28.5l-2.65 0l0 -10.6l9.1 0l0.05 10.6l-2.75 0l3.65 18.25l0.1 0l3.7 -18.25l-2.75 0l0 -10.6l8.4 0l0 10.6l-2.75 0l3.75 18.2l0.1 0l3.65 -18.2l-2.7 0l0 -10.6l8.9 0l0 10.6l-2.45 0" />
</g>
<g id="PathID_63" transform="matrix(0.705882, 0, 0, 0.705882, 192, 276)">
<path style="fill:#F2E4B7;fill-opacity:1" d="M20.4 -28.5l-2.15 0l-5.45 8.95l5.6 8.95l2.05 0l0 10.6l-8.5 0l0 -10.6l2.25 0l-3.45 -5.55l-3.3 5.55l2.3 0l0 10.6l-8.65 0l0.05 -10.6l2.1 0l5.45 -8.95l-5.55 -8.95l-2.05 0l0 -10.6l8.55 0l0 10.6l-2.3 0l3.35 5.55l3.4 -5.55l-2.25 0l0 -10.6l8.55 0l0 10.6" />
</g>
<g id="PathID_64" transform="matrix(0.705882, 0, 0, 0.705882, 240, 276)">
<path style="fill:#F2E4B7;fill-opacity:1" d="M20.45 -28.5l-2.4 0l-5.5 11.35l0 6.55l2.65 0l0 10.6l-9 0l0 -10.6l2.75 0l0 -6.55l-5.45 -11.35l-2.45 0l0 -10.6l8.75 0l0.05 10.6l-2.4 0l3.3 6.9l3.3 -6.9l-2.35 0l0 -10.6l8.75 0l0 10.6" />
</g>
<g id="PathID_65" transform="matrix(0.705882, 0, 0, 0.705882, 288, 276)">
<path style="fill:#F2E4B7;fill-opacity:1" d="M15.15 -39.1l0 10.35l-9.45 18.15l4.35 0q0.6 0.05 1.1 -0.5q0.45 -0.55 0.45 -1.35l0 -3.15l3.55 0l0 15.6l-13.7 0l0 -10.3l9.6 -18.2l-4.55 0q-0.6 0.05 -1.05 0.6q-0.45 0.5 -0.45 1.25l0 3.15l-3.55 0l0 -15.6l13.7 0" />
</g>
<g id="PathID_66" transform="matrix(0.705882, 0, 0, 0.705882, 336, 276)">
<path style="fill:#F2E4B7;fill-opacity:1" d="M4.15 -29.5q1.75 -1.55 4.7 -1.55q3.05 0 4.85 1.7q1.8 1.7 1.8 4.55l0 17.7l2 0l0 7.1l-4.9 0l0.05 -3.2l-0.1 -0.1q-0.95 1.8 -2.15 2.6q-1.15 0.85 -2.6 0.85q-2.4 0 -4 -1.75q-1.6 -1.75 -1.6 -4.55l0 -5.75q0 -2.2 1.35 -3.55q1.35 -1.3 3.6 -1.3l5.45 0l0 -5.4q0 -0.7 -0.45 -1.15q-0.45 -0.5 -1.35 -0.5l-3.45 0q-1 0.05 -1.55 0.55q-0.55 0.5 -0.55 1.35l-0.05 3l-2.85 0l0 -6.55q0 -2.5 1.8 -4.05M10.35 -14.15l-0.75 0l-2.8 0.1q-0.7 0.15 -1.1 0.55l-0.4 0.65l-0.15 0.8l0 2.8q0 1.15 0.6 1.7q0.6 0.6 1.75 0.6l2.5 -0.05q1.35 0.05 1.95 -0.55q0.65 -0.6 0.65 -1.85l0 -4.7l-0.75 0l-0.7 0l-0.8 -0.05" />
</g>
<g id="PathID_67" transform="matrix(0.705882, 0, 0, 0.705882, 384, 276)">
<path style="fill:#F2E4B7;fill-opacity:1" d="M5.75 -39.1l0 11.45l0.1 0l0.4 -0.5l0.3 -0.55q0.95 -1.25 1.9 -1.75q1 -0.55 2.15 -0.55q2.3 0 3.85 1.85q1.6 1.8 1.6 4.55l0 17.6q0 3.35 -1.4 5.25q-1.4 1.85 -3.8 1.85l-1.9 -0.25q-0.85 -0.3 -1.65 -1l-0.75 -0.75l-0.7 -0.85l-0.1 0l0 2.75l-2.8 0l0 -32l-1.85 0l0 -7.1l4.65 0M10.75 -23.85l-2.55 0q-1.25 0.05 -1.85 0.55q-0.6 0.5 -0.6 1.65l0 11.95q0 1.35 0.6 2q0.65 0.7 1.9 0.7l2.15 0q1.4 0.05 2.05 -0.6q0.7 -0.65 0.7 -1.8l0 -12.15q0 -1.2 -0.5 -1.7q-0.55 -0.55 -1.9 -0.6" />
</g>
<g id="PathID_68" transform="matrix(0.705882, 0, 0, 0.705882, 0, 324)">
<path style="fill:#F2E4B7;fill-opacity:1" d="M4 -29.45q1.7 -1.6 4.75 -1.6q3.45 0 4.95 1.6q1.55 1.55 1.55 5.15l0.05 5.5l-2.95 0l0 -3.3q0 -0.8 -0.5 -1.3l-1.45 -0.45l-3.2 0q-1 0.05 -1.5 0.6q-0.5 0.6 -0.5 1.65l0 12.05q0 1.45 0.45 2q0.45 0.55 1.7 0.55l3.3 0q0.8 0.05 1.3 -0.4q0.45 -0.5 0.45 -1.25l0 -3.25l2.85 0l0 5.95q0 3.25 -1.5 4.7q-1.5 1.45 -4.75 1.45q-3.05 0 -4.85 -1.55q-1.85 -1.55 -1.85 -4.2l0 -19.3q0 -3 1.7 -4.6" />
</g>
<g id="PathID_69" transform="matrix(0.705882, 0, 0, 0.705882, 48, 324)">
<path style="fill:#F2E4B7;fill-opacity:1" d="M15.55 -39.1l0 32l1.75 0l0 7.1l-4.65 0l0 -3.3l-0.1 0q-0.75 1.8 -1.9 2.6q-1.15 0.85 -2.7 0.85q-2.5 0 -4.05 -1.85q-1.6 -1.85 -1.6 -4.9l0 -17.85q0 -3 1.45 -4.75q1.45 -1.75 3.9 -1.75q1.6 0 2.8 0.85q1.2 0.85 2.1 2.65l0.1 0l0 -4.55l-1.95 0l0 -7.1l4.85 0M10.25 -23.85l-2.15 0q-1.55 0.05 -2.2 0.65q-0.65 0.6 -0.65 1.9l-0.05 12.1q0 1.2 0.75 1.75q0.8 0.55 2.4 0.55l1.6 0q1.55 0.05 2.1 -0.55q0.6 -0.6 0.6 -2l0 -11.25q0 -1.7 -0.55 -2.4q-0.5 -0.7 -1.85 -0.75" />
</g>
<g id="PathID_70" transform="matrix(0.705882, 0, 0, 0.705882, 96, 324)">
<path style="fill:#F2E4B7;fill-opacity:1" d="M8.45 -31q3.1 0 4.8 1.65q1.7 1.65 1.7 4.7l0 10.45l-10 0l0 5.05q0 1.1 0.85 1.65q0.85 0.55 2.6 0.55l1 0q1.35 0.05 2 -0.45q0.65 -0.55 0.65 -1.6l0 -3.2l2.9 -0.05l0 6q0 3.1 -1.65 4.75q-1.6 1.65 -4.65 1.65q-3.25 0 -4.95 -1.7q-1.7 -1.65 -1.7 -4.95l0 -17.95q0 -3.3 1.6 -4.9q1.6 -1.65 4.85 -1.65M12.1 -22.2q0 -0.85 -0.6 -1.25q-0.6 -0.4 -2.05 -0.45l-1.95 0q-1.45 0.05 -2 0.45q-0.55 0.4 -0.55 1.35l0 5.3l7.15 0l0 -5.4" />
</g>
<g id="PathID_71" transform="matrix(0.705882, 0, 0, 0.705882, 144, 324)">
<path style="fill:#F2E4B7;fill-opacity:1" d="M9.35 -39.1l0 7.15l-2.75 0l-0.8 0.25q-0.25 0.25 -0.25 0.65l0 0.8l3.8 0l0 6.45l-3.8 0l0 16.7l1.95 0l0 7.1l-6.4 0l0 -7.1l1.65 0l0 -16.7l-1.65 0l0 -6.45l1.65 0l0 -3.9q0 -2.1 1.55 -3.5q1.55 -1.4 3.95 -1.4l1.1 -0.05" />
</g>
<g id="PathID_72" transform="matrix(0.705882, 0, 0, 0.705882, 192, 324)">
<path style="fill:#F2E4B7;fill-opacity:1" d="M17.25 -30.95l0 7.15l-1.85 0l0 27q0 1.9 -1.45 3.35q-1.45 1.4 -3.55 1.4l-1.75 0q-1.95 0 -2.85 -0.75q-0.85 -0.7 -0.85 -2.5l0 -1.2q0 -1.3 0.45 -1.95q0.5 -0.7 1.35 -0.7l1.15 0q1.05 0 1.45 0.45q0.45 0.5 0.45 1.6l0 1.45q0 0.8 -0.35 1.2q-0.3 0.45 -1.05 0.65l0 0.1l1.25 0q1.5 0 2.2 -0.55q0.7 -0.55 0.7 -1.65l0 -10.3l-0.1 0l-1.1 2.85l-1.05 1.05q-0.75 0.5 -1.7 0.7l-0.45 0.05l-0.5 0.05q-2.65 0 -4.05 -1.7q-1.4 -1.7 -1.4 -4.85l0 -17.2q0 -2.7 1.4 -4.25q1.4 -1.5 3.9 -1.5q1.95 0 3.2 0.95q1.3 0.9 2 3l0.1 0l0 -3.9l4.45 0M11.9 -23.45q-0.6 -0.5 -2.3 -0.55l-1.7 0q-1.55 0.05 -2.2 0.6q-0.6 0.55 -0.6 1.85l0 10.2q0 1.65 0.65 2.2q0.65 0.5 2.45 0.5l1.45 0q1.55 0.05 2.2 -0.5q0.65 -0.55 0.65 -1.85l0 -10.65q0 -1.3 -0.6 -1.8" />
</g>
<g id="PathID_73" transform="matrix(0.705882, 0, 0, 0.705882, 240, 324)">
<path style="fill:#F2E4B7;fill-opacity:1" d="M5.6 -39.1l0 11.6l0.1 0q0.7 -1.8 1.9 -2.65q1.25 -0.85 3.1 -0.85q2.1 0 3.55 1.7q1.5 1.65 1.5 4.05l0 18.15l1.5 0l0 7.1l-6.35 0l0 -7.1l2 0l0 -14.8q0 -0.95 -0.6 -1.5q-0.55 -0.5 -1.75 -0.5l-2 0q-1.55 0.05 -2.25 0.5q-0.7 0.5 -0.7 1.5l0 14.8l1.75 0l0 7.1l-6.35 0l0 -7.1l1.8 0l0 -24.9l-1.75 0l0 -7.1l4.55 0" />
</g>
<g id="PathID_74" transform="matrix(0.705882, 0, 0, 0.705882, 288, 324)">
<path style="fill:#F2E4B7;fill-opacity:1" d="M3.5 -39.3l0.65 0q1.15 0.05 1.6 0.6q0.45 0.55 0.45 1.85l0 0.9q0 1.25 -0.5 1.85q-0.5 0.6 -1.6 0.6l-0.6 0q-1.2 0.05 -1.7 -0.55q-0.5 -0.6 -0.5 -1.95l0 -0.8q0 -1.25 0.55 -1.85q0.5 -0.6 1.65 -0.6l0 -0.05M6.05 -30.95l0 23.85l1.75 0l0 7.1l-6.8 0l0 -7.1l2.25 0l0 -16.7l-2.25 0l0 -7.15l5.05 0" />
</g>
<g id="PathID_75" transform="matrix(0.705882, 0, 0, 0.705882, 336, 324)">
<path style="fill:#F2E4B7;fill-opacity:1" d="M2.85 -39.3l1.75 0q0.7 0.05 1 0.6q0.35 0.55 0.35 1.75l0 0.75q0 1.35 -0.5 2q-0.5 0.65 -1.55 0.65l-0.6 0q-1.3 0.05 -1.75 -0.5q-0.45 -0.55 -0.45 -2l0 -0.8q0 -1.3 0.35 -1.85q0.4 -0.55 1.4 -0.55l0 -0.05M5.95 -30.95l0 35.5q0 1.25 -0.85 2.25q-0.85 1.05 -1.85 1.05l-2.15 0l0 -7.1l0.95 0l0.8 -0.25l0.25 -0.6l0 -23.7l-1.95 0l-0.05 -7.15l4.85 0" />
</g>
<g id="PathID_76" transform="matrix(0.705882, 0, 0, 0.705882, 384, 324)">
<path style="fill:#F2E4B7;fill-opacity:1" d="M5.85 -39.1l0 22.4l0.1 0l5.5 -7.1l-1.45 0l0 -7.15l6.5 0l0 7.15l-1.45 0l-5.55 6.85l1.9 0q2.45 0.05 3.5 1q1.05 0.9 1.05 2.95l0 5.9l1.35 0l0 7.1l-6.15 0l0 -7.1l1.95 0l0 -4.9q0 -1 -0.4 -1.55q-0.45 -0.5 -1.35 -0.5l-5.5 0l0 6.95l1.8 0l0 7.1l-6.6 0l0 -7.1l1.95 0l0 -24.9l-1.9 0l0 -7.1l4.75 0" />
</g>
<g id="PathID_77" transform="matrix(0.705882, 0, 0, 0.705882, 0, 372)">
<path style="fill:#F2E4B7;fill-opacity:1" d="M5.9 -39.1l0 32l1.7 0l0 7.1l-6.75 0l0 -7.1l2.25 0l0 -24.9l-2.25 0l0 -7.1l5.05 0" />
</g>
<g id="PathID_78" transform="matrix(0.705882, 0, 0, 0.705882, 48, 372)">
<path style="fill:#F2E4B7;fill-opacity:1" d="M23.8 -29.4q1.35 1.65 1.35 4.4l0 17.9l1.8 0l0 7.1l-6.5 0l0 -7.1l1.85 0l0 -14.4q0 -1.1 -0.55 -1.7q-0.55 -0.65 -1.6 -0.65l-2.65 0q-0.95 0.05 -1.5 0.6q-0.55 0.6 -0.55 1.55l0 14.6l1.8 0l0 7.1l-6.55 0l0 -7.1l1.9 0l0 -14.4q0 -1.15 -0.6 -1.75q-0.6 -0.6 -1.9 -0.6l-2.3 0q-0.95 0.05 -1.5 0.7q-0.5 0.6 -0.5 1.75l0 14.3l1.85 0l0 7.1l-6.55 0l0 -7.1l1.85 0l0 -16.7l-1.85 0l0 -7.15l4.7 0l0 3.1l0.1 0q0.9 -1.75 2 -2.45q1.1 -0.75 2.65 -0.75q1.65 0 2.85 1q1.15 1 1.75 2.95q1 -2 2.25 -3q1.25 -0.95 2.9 -0.95q2.15 0 3.5 1.65" />
</g>
<g id="PathID_79" transform="matrix(0.705882, 0, 0, 0.705882, 96, 372)">
<path style="fill:#F2E4B7;fill-opacity:1" d="M5.45 -27.9l0.1 0q0.85 -1.5 2.05 -2.35q1.2 -0.8 2.55 -0.8q2.2 0 3.75 1.75q1.6 1.75 1.6 4.15l0 18.05l1.6 0l0 7.1l-6.2 0l0 -7.1l1.75 0l0 -14.85q0 -1 -0.55 -1.5q-0.5 -0.45 -1.85 -0.45l-2.15 0q-1.45 0.05 -2.1 0.6q-0.6 0.6 -0.6 1.95l0 14.25l1.7 0l0 7.1l-6.35 0l0 -7.1l1.8 0l0 -16.7l-1.7 0l0 -7.15l4.6 0l0 3.05" />
</g>
<g id="PathID_80" transform="matrix(0.705882, 0, 0, 0.705882, 144, 372)">
<path style="fill:#F2E4B7;fill-opacity:1" d="M9.3 -31.05q3.55 0 5.2 1.6q1.65 1.6 1.65 5.1l0 18.25q0 3.2 -1.75 4.75q-1.75 1.5 -5.25 1.5q-3.2 0 -4.95 -1.55q-1.75 -1.6 -1.75 -4.6l0 -18.6q0 -3.3 1.7 -4.9q1.65 -1.55 5.15 -1.55M10.4 -23.95l-2.25 0q-1.55 0.05 -2.2 0.75q-0.6 0.7 -0.6 2.4l0 10.8q0 1.65 0.7 2.35q0.75 0.65 2.65 0.65l1.7 0q1.5 0.05 2.15 -0.55q0.65 -0.65 0.65 -2l0 -11.8q0 -1.45 -0.6 -2q-0.55 -0.55 -2.2 -0.6" />
</g>
<g id="PathID_81" transform="matrix(0.705882, 0, 0, 0.705882, 192, 372)">
<path style="fill:#F2E4B7;fill-opacity:1" d="M5.75 -27.75l0.1 0q0.85 -1.75 2 -2.5q1.1 -0.75 2.75 -0.75q2.55 0 4 1.9q1.45 1.95 1.45 5.4l0 18.2q0 2.25 -1.4 3.7q-1.45 1.45 -3.6 1.45q-1.85 0 -3.1 -1q-1.2 -1.05 -2.05 -3.3l-0.1 -0.05l0 5.55l2.1 0l0.05 7.1l-6.9 0l0 -7.1l1.9 0l0 -24.65l-1.95 0l0 -7.15l4.75 0l0 3.2M10.95 -24l-2.8 0q-1.15 0.05 -1.75 0.55q-0.6 0.5 -0.6 1.55l0 12.15q0 1.2 0.7 1.9q0.7 0.65 1.95 0.65l2 0q1.35 0.05 2 -0.55q0.65 -0.65 0.65 -1.9l0 -11.9q0 -1.3 -0.45 -1.85q-0.5 -0.55 -1.7 -0.6" />
</g>
<g id="PathID_82" transform="matrix(0.705882, 0, 0, 0.705882, 240, 372)">
<path style="fill:#F2E4B7;fill-opacity:1" d="M17.15 -30.95l0 7.15l-1.85 0l0 24.65l1.85 0l0 7.1l-6.8 0l0 -7.1l2.1 0l0 -5.55l-0.1 0q-0.65 2.2 -1.95 3.3q-1.25 1.1 -3.05 1.1q-1.1 0 -2 -0.35q-0.9 -0.35 -1.6 -1q-0.7 -0.75 -1.05 -1.65q-0.35 -0.9 -0.55 -2.55l0 -17.8q0 -3.4 1.45 -5.4q1.5 -2 4 -2q1.7 0 2.85 0.9q1.2 0.95 1.85 2.75l0.1 0l0 -3.55l4.75 0M10.3 -23.95l-2.95 0q-1.15 0.1 -1.7 0.65q-0.55 0.55 -0.55 1.65l0 11.95q0 1.35 0.6 1.9q0.65 0.6 1.95 0.6l2.4 0q1.2 0.05 1.8 -0.6q0.6 -0.65 0.6 -1.8l0 -12q0 -1.2 -0.5 -1.75q-0.5 -0.6 -1.65 -0.6" />
</g>
<g id="PathID_83" transform="matrix(0.705882, 0, 0, 0.705882, 288, 372)">
<path style="fill:#F2E4B7;fill-opacity:1" d="M5.4 -27.35l0.1 0q0.6 -2 1.5 -2.85q0.9 -0.85 2.4 -0.85q1.55 0 2.5 1.2q0.9 1.25 0.9 3.2l0.05 7.45l-2.6 0l0 -3l-0.4 -1.35q-0.4 -0.45 -1.15 -0.45l-1.35 0q-0.95 0.05 -1.35 0.5q-0.45 0.5 -0.45 1.55l0 14.85l2.25 0l0 7.1l-6.95 0l0 -7.1l1.85 0l0 -16.7l-1.9 0l0 -7.15l4.6 0l0 3.6" />
</g>
<g id="PathID_84" transform="matrix(0.705882, 0, 0, 0.705882, 336, 372)">
<path style="fill:#F2E4B7;fill-opacity:1" d="M14.7 -30.95l0 12.05l-2.85 0l0 -2.5q0 -1.2 -0.45 -1.8q-0.5 -0.6 -1.5 -0.6l-3.6 0q-0.8 0.05 -1.25 0.55q-0.45 0.5 -0.45 1.4l0 3.4q0 0.8 0.5 1.2q0.55 0.4 1.55 0.45l3.25 0q2.6 0.05 3.75 1.15q1.15 1.05 1.15 3.55l0 6.15q0 2.85 -1.35 4.5q-1.35 1.6 -3.65 1.6q-1.7 0 -2.85 -0.75q-1.2 -0.7 -2.2 -2.45l-0.1 0l0 3.05l-2.95 0l0 -11.9l2.9 0l0 2.6q0 1.3 0.5 1.85q0.5 0.55 1.65 0.55l3.1 0q1.05 0.05 1.5 -0.45q0.5 -0.55 0.5 -1.6l0 -2.85q0 -1 -0.5 -1.55q-0.45 -0.6 -1.35 -0.6l-3.25 0q-2.5 0.05 -3.75 -1.05q-1.3 -1.05 -1.3 -3.1l0 -7.4q0 -2.5 1.35 -4q1.35 -1.55 3.55 -1.55q1.65 0 3.05 1.2q1.35 1.2 2.15 3.3l0.1 0l0 -4.4l2.8 0" />
</g>
<g id="PathID_85" transform="matrix(0.705882, 0, 0, 0.705882, 384, 372)">
<path style="fill:#F2E4B7;fill-opacity:1" d="M5.5 -36l0 5.05l3.55 0l0 7.15l-3.55 0l0 15.3q0 0.65 0.35 1.05q0.35 0.4 0.85 0.4l2.4 0l0 7.05l-1.25 0q-2.2 0 -3.75 -1.7q-1.5 -1.65 -1.5 -4.2l0 -17.9l-1.8 0l0 -7.15l0.95 0q0.4 0.05 0.65 -0.2l0.2 -0.8l0 -4.05l2.9 0" />
</g>
<g id="PathID_86" transform="matrix(0.705882, 0, 0, 0.705882, 0, 420)">
<path style="fill:#F2E4B7;fill-opacity:1" d="M7.4 -30.95l0 7.15l-1.9 0l0 14.75q0 1.15 0.65 1.6q0.65 0.5 2 0.5l1.95 0q1.5 0.05 2.1 -0.5q0.6 -0.6 0.6 -1.85l0 -14.5l-1.85 0l0 -7.15l6.3 0l0 7.15l-1.55 0l0 16.7l1.55 0l0 7.1l-4.5 0l0 -3.25l-0.1 0q-0.65 1.55 -1.9 2.45q-1.25 0.9 -2.65 0.9q-2.45 0 -3.95 -1.65q-1.45 -1.7 -1.45 -4.5l0 -17.75l-1.7 0l0 -7.15l6.4 0" />
</g>
<g id="PathID_87" transform="matrix(0.705882, 0, 0, 0.705882, 48, 420)">
<path style="fill:#F2E4B7;fill-opacity:1" d="M7.9 -30.95l0 7.15l-1.95 -0.05l3.15 16.2l0.1 0l3.3 -16.2l-2 0.05l0 -7.15l6.75 0l0 7.15l-1.85 -0.05l-4.9 23.85l-2.65 0l-4.9 -23.85l-1.9 0.05l0 -7.15l6.85 0" />
</g>
<g id="PathID_88" transform="matrix(0.705882, 0, 0, 0.705882, 96, 420)">
<path style="fill:#F2E4B7;fill-opacity:1" d="M7.8 -30.95l0 7.15l-1.9 0l3.25 16.1l0.1 0l3.15 -16.1l-1.8 0l-0.05 -7.15l6.8 0l0 7.15l-1.95 0l3.3 16.05l0.1 0l3.25 -16.05l-1.9 0l0 -7.15l6.7 0l0 7.15l-1.9 0l-4.9 23.8l-2.75 0l-3.25 -15.75l-0.1 0l-3.4 15.75l-2.7 0l-4.85 -23.8l-1.95 0l0 -7.15l6.75 0" />
</g>
<g id="PathID_89" transform="matrix(0.705882, 0, 0, 0.705882, 144, 420)">
<path style="fill:#F2E4B7;fill-opacity:1" d="M7.85 -30.95l0 7.15l-1.75 0l3.1 5.6l3.1 -5.6l-1.8 0l0.05 -7.15l6.8 0l0 7.15l-1.7 0l-4.85 8.5l4.65 8.2l1.8 0l0 7.1l-6.9 0l0 -7.1l1.75 0l-2.9 -5.2l-2.95 5.2l1.7 0l0 7.1l-6.9 0l0 -7.1l1.9 0l4.55 -8.15l-4.7 -8.55l-1.75 0l0.05 -7.15l6.75 0" />
</g>
<g id="PathID_90" transform="matrix(0.705882, 0, 0, 0.705882, 192, 420)">
<path style="fill:#F2E4B7;fill-opacity:1" d="M7.9 -30.95l0 7.15l-1.9 0l3.7 17.15l0.1 0l2.65 -17.15l-2 0l0 -7.15l6.85 0l0 7.15l-1.95 0l-2.85 17.75l-1.05 6.05l-1.05 4.05l-0.65 1.75l-0.65 1.05l-1.15 0.8l-1.6 0.25l-2.4 0l0 -5.95l3 0q0.6 0 0.95 -0.4l0.35 -1.15l0 -0.3l-0.1 -0.3l-5.1 -23.6l-2 0l0 -7.15l6.85 0" />
</g>
<g id="PathID_91" transform="matrix(0.705882, 0, 0, 0.705882, 240, 420)">
<path style="fill:#F2E4B7;fill-opacity:1" d="M15 -30.95l0 7.15l-9.9 16.7l6.05 0q0.5 0.05 0.75 -0.3l0.25 -0.9l0 -4.05l2.8 0l0 12.35l-13.25 0l0 -7.1l10.05 -16.7l-5.8 0q-0.65 0.05 -1 0.5q-0.35 0.45 -0.35 1.15l0 3.55l-2.85 0l0 -12.35l13.25 0" />
</g>
</svg>
